<svg id="svg" version="1.1" xmlns="http://www.w3.org/2000/svg" xmlns:xlink="http://www.w3.org/1999/xlink" width="400" height="187.83882783882785" viewBox="0, 0, 400,187.83882783882785"><g id="svgg"><path id="path0" d="M0.000 72.016 L 0.000 144.033 0.423 144.220 C 0.655 144.323,0.735 144.382,0.601 144.352 C 0.466 144.322,0.410 144.384,0.476 144.491 C 0.541 144.597,0.750 144.635,0.939 144.575 C 1.129 144.515,1.339 144.555,1.406 144.664 C 1.474 144.774,1.609 144.813,1.707 144.753 C 1.805 144.692,1.825 144.543,1.752 144.421 C 1.676 144.295,1.756 144.310,1.937 144.457 C 2.144 144.625,2.255 144.641,2.255 144.504 C 2.255 144.388,2.403 144.294,2.583 144.296 C 2.864 144.298,2.871 144.325,2.630 144.481 C 2.380 144.643,2.380 144.665,2.630 144.683 C 3.497 144.743,4.822 144.610,5.023 144.444 C 5.341 144.180,6.258 144.421,6.078 144.721 C 5.990 144.867,6.056 144.856,6.258 144.693 C 6.499 144.498,6.576 144.492,6.576 144.669 C 6.576 144.855,6.633 144.855,6.858 144.668 C 7.029 144.526,7.370 144.480,7.723 144.551 C 8.156 144.637,8.282 144.605,8.213 144.425 C 8.159 144.283,8.268 144.171,8.475 144.155 C 8.693 144.139,8.832 144.251,8.833 144.446 C 8.835 144.626,8.896 144.682,8.974 144.575 C 9.210 144.254,9.858 143.797,9.697 144.065 C 9.587 144.247,9.720 144.296,10.237 144.261 C 10.615 144.235,10.973 144.135,11.033 144.037 C 11.097 143.933,11.040 143.923,10.897 144.011 C 10.734 144.112,10.697 144.090,10.786 143.946 C 10.886 143.784,11.020 143.782,11.313 143.939 C 11.630 144.109,11.686 144.098,11.605 143.886 C 11.541 143.719,11.629 143.622,11.844 143.622 C 12.031 143.622,12.147 143.683,12.102 143.757 C 12.056 143.831,12.114 143.950,12.230 144.022 C 12.347 144.094,12.508 144.047,12.588 143.917 C 12.668 143.788,12.828 143.739,12.943 143.810 C 13.058 143.881,13.152 143.841,13.152 143.720 C 13.152 143.595,13.283 143.552,13.460 143.620 C 13.630 143.685,13.968 143.607,14.212 143.448 C 14.455 143.288,14.655 143.244,14.655 143.349 C 14.655 143.455,14.737 143.542,14.837 143.542 C 14.937 143.542,14.973 143.394,14.917 143.213 C 14.819 142.900,14.824 142.900,15.026 143.213 C 15.254 143.567,15.703 143.681,15.485 143.329 C 15.407 143.203,15.455 143.151,15.603 143.200 C 15.740 143.246,16.021 143.115,16.226 142.910 C 16.593 142.543,16.602 142.543,16.741 142.898 C 16.819 143.097,16.889 143.149,16.896 143.014 C 16.903 142.879,16.994 142.820,17.097 142.884 C 17.201 142.948,17.285 142.902,17.285 142.781 C 17.285 142.661,17.412 142.611,17.567 142.670 C 17.722 142.730,17.849 142.687,17.849 142.576 C 17.849 142.465,17.989 142.428,18.163 142.494 C 18.336 142.561,18.545 142.507,18.629 142.374 C 18.749 142.186,18.783 142.184,18.785 142.367 C 18.787 142.496,18.936 142.595,19.117 142.587 C 19.313 142.578,19.351 142.534,19.211 142.478 C 18.811 142.316,18.953 142.068,19.381 142.180 C 19.659 142.252,19.744 142.217,19.652 142.068 C 19.578 141.948,19.607 141.851,19.716 141.851 C 19.826 141.851,19.915 141.935,19.915 142.039 C 19.915 142.142,20.000 142.226,20.103 142.226 C 20.207 142.226,20.291 142.107,20.291 141.962 C 20.291 141.784,20.423 141.732,20.696 141.804 C 20.956 141.872,21.057 141.838,20.978 141.710 C 20.900 141.584,20.994 141.546,21.231 141.609 C 21.439 141.663,21.751 141.591,21.925 141.450 C 22.142 141.274,22.198 141.267,22.101 141.428 C 21.909 141.747,22.447 141.735,22.769 141.413 C 22.906 141.275,23.124 141.198,23.252 141.241 C 23.380 141.283,23.485 141.229,23.485 141.119 C 23.485 140.998,23.708 140.965,24.057 141.035 C 24.486 141.121,24.692 141.063,24.882 140.802 C 25.094 140.513,25.184 140.496,25.429 140.700 C 25.718 140.939,26.203 140.829,26.038 140.561 C 25.891 140.325,26.755 140.354,26.908 140.591 C 27.022 140.767,27.088 140.766,27.205 140.586 C 27.287 140.459,27.543 140.391,27.773 140.435 C 28.008 140.480,28.144 140.437,28.082 140.338 C 27.987 140.184,28.885 140.053,29.386 140.147 C 29.480 140.165,29.627 140.069,29.712 139.935 C 29.831 139.747,29.868 139.745,29.870 139.925 C 29.874 140.257,30.562 140.218,30.693 139.878 C 30.752 139.723,30.909 139.597,31.042 139.599 C 31.212 139.601,31.202 139.653,31.006 139.777 C 30.768 139.927,30.773 139.968,31.044 140.072 C 31.217 140.139,31.466 140.126,31.599 140.044 C 32.092 139.740,35.651 139.609,35.851 139.888 C 35.922 139.986,36.952 140.066,38.140 140.066 C 39.328 140.066,40.359 140.147,40.431 140.247 C 40.502 140.347,41.031 140.412,41.605 140.392 C 42.179 140.371,42.649 140.429,42.649 140.520 C 42.649 140.611,43.209 140.667,43.892 140.644 C 44.978 140.608,45.092 140.634,44.788 140.857 C 44.482 141.080,44.549 141.100,45.336 141.019 C 45.883 140.962,46.188 140.996,46.120 141.107 C 45.959 141.368,46.290 141.328,46.568 141.052 C 46.758 140.864,46.780 140.883,46.678 141.150 C 46.570 141.433,46.617 141.458,46.996 141.317 C 47.477 141.139,47.968 141.228,47.821 141.467 C 47.714 141.639,48.942 141.870,50.194 141.913 C 50.676 141.929,51.021 142.020,50.962 142.116 C 50.903 142.212,50.995 142.236,51.167 142.170 C 51.543 142.026,52.081 142.202,51.943 142.424 C 51.889 142.511,52.017 142.550,52.226 142.509 C 52.436 142.469,52.608 142.537,52.610 142.660 C 52.611 142.796,52.686 142.773,52.798 142.602 C 52.951 142.368,53.011 142.364,53.147 142.575 C 53.254 142.741,53.459 142.783,53.734 142.696 C 54.022 142.605,54.116 142.628,54.028 142.770 C 53.947 142.901,54.077 142.978,54.381 142.978 C 54.645 142.978,54.863 143.084,54.864 143.213 C 54.866 143.369,54.928 143.354,55.049 143.166 C 55.201 142.931,55.234 142.947,55.249 143.260 C 55.259 143.466,55.310 143.530,55.362 143.401 C 55.414 143.271,55.539 143.166,55.640 143.166 C 55.741 143.166,55.766 143.259,55.695 143.372 C 55.603 143.522,55.674 143.522,55.955 143.372 C 56.182 143.250,56.386 143.236,56.448 143.337 C 56.507 143.432,56.449 143.558,56.319 143.618 C 56.189 143.678,56.390 143.703,56.766 143.674 C 57.222 143.639,57.421 143.694,57.366 143.839 C 57.320 143.958,57.461 144.103,57.680 144.160 C 57.996 144.242,58.034 144.212,57.868 144.011 C 57.701 143.810,57.740 143.780,58.061 143.864 C 58.282 143.922,58.507 144.085,58.561 144.225 C 58.615 144.366,58.740 144.481,58.838 144.481 C 58.937 144.481,58.965 144.397,58.902 144.295 C 58.749 144.047,59.424 144.299,59.593 144.553 C 59.664 144.659,60.003 144.777,60.345 144.816 C 60.687 144.854,60.997 144.967,61.033 145.067 C 61.073 145.178,61.194 145.168,61.345 145.043 C 61.525 144.894,61.630 144.900,61.731 145.065 C 61.826 145.217,61.791 145.241,61.625 145.139 C 61.459 145.036,61.424 145.060,61.519 145.213 C 61.622 145.379,61.725 145.384,61.909 145.231 C 62.097 145.074,62.204 145.105,62.343 145.354 C 62.505 145.642,62.569 145.651,62.849 145.419 C 63.126 145.189,63.198 145.191,63.383 145.432 C 63.501 145.586,63.725 145.704,63.880 145.695 C 64.035 145.685,64.246 145.723,64.349 145.779 C 64.453 145.835,64.622 145.891,64.725 145.903 C 64.829 145.916,65.024 145.940,65.159 145.955 C 65.294 145.971,65.353 146.069,65.289 146.172 C 65.225 146.275,65.241 146.366,65.325 146.374 C 65.408 146.382,65.646 146.429,65.853 146.479 C 66.059 146.529,66.342 146.579,66.481 146.590 C 66.620 146.601,66.827 146.759,66.940 146.941 C 67.133 147.249,67.164 147.250,67.407 146.956 C 67.646 146.669,67.658 146.674,67.548 147.017 C 67.451 147.319,67.474 147.347,67.664 147.158 C 67.988 146.837,68.201 146.864,68.201 147.227 C 68.201 147.449,68.326 147.507,68.665 147.442 C 68.920 147.393,69.090 147.417,69.042 147.495 C 68.994 147.572,69.085 147.686,69.245 147.747 C 69.433 147.819,69.489 147.783,69.403 147.644 C 69.321 147.511,69.354 147.481,69.487 147.563 C 69.606 147.637,69.704 147.811,69.704 147.950 C 69.704 148.111,69.841 148.168,70.080 148.105 C 70.287 148.051,70.456 148.081,70.456 148.172 C 70.456 148.262,70.629 148.444,70.840 148.576 C 71.220 148.814,71.221 148.810,70.895 148.293 C 70.565 147.771,70.566 147.770,70.948 148.098 C 71.159 148.279,71.402 148.364,71.487 148.286 C 71.573 148.208,71.594 148.231,71.534 148.338 C 71.474 148.444,71.672 148.672,71.973 148.846 C 72.275 149.019,72.522 149.094,72.522 149.013 C 72.522 148.931,72.653 148.865,72.812 148.865 C 72.988 148.865,73.061 148.972,72.998 149.136 C 72.927 149.321,72.984 149.373,73.178 149.299 C 73.334 149.239,73.462 149.281,73.462 149.392 C 73.462 149.515,73.649 149.548,73.936 149.476 C 74.250 149.397,74.442 149.442,74.507 149.612 C 74.561 149.752,74.707 149.871,74.832 149.876 C 75.517 149.905,76.160 150.149,76.792 150.620 C 77.182 150.912,77.394 151.013,77.263 150.845 C 77.057 150.581,77.088 150.540,77.498 150.540 C 77.758 150.540,77.971 150.619,77.971 150.716 C 77.971 150.812,77.865 150.831,77.736 150.757 C 77.607 150.684,77.670 150.795,77.877 151.004 C 78.084 151.213,78.310 151.352,78.381 151.312 C 78.451 151.271,78.555 151.314,78.612 151.405 C 78.668 151.497,78.962 151.543,79.264 151.508 C 79.629 151.466,79.851 151.541,79.924 151.732 C 79.985 151.890,80.110 151.973,80.203 151.916 C 80.295 151.859,80.475 151.938,80.603 152.092 C 80.845 152.384,81.259 152.489,81.090 152.215 C 81.037 152.129,81.112 152.059,81.257 152.059 C 81.401 152.059,81.503 152.147,81.483 152.254 C 81.463 152.361,81.555 152.453,81.688 152.457 C 81.821 152.462,82.010 152.593,82.108 152.748 C 82.256 152.981,82.289 152.965,82.304 152.654 C 82.314 152.447,82.365 152.384,82.417 152.514 C 82.469 152.644,82.611 152.691,82.731 152.619 C 82.851 152.547,82.823 152.647,82.668 152.842 C 82.461 153.101,82.454 153.155,82.642 153.042 C 82.799 152.947,82.961 152.987,83.062 153.146 C 83.164 153.307,83.227 153.323,83.229 153.187 C 83.230 153.067,83.380 152.994,83.560 153.024 C 83.741 153.055,83.875 153.153,83.858 153.242 C 83.841 153.332,84.061 153.414,84.347 153.424 C 84.632 153.434,85.044 153.620,85.261 153.838 C 85.549 154.126,85.836 154.216,86.321 154.169 C 86.687 154.133,86.939 154.179,86.883 154.271 C 86.826 154.363,86.874 154.439,86.989 154.439 C 87.105 154.439,87.158 154.505,87.108 154.587 C 87.057 154.668,87.243 154.753,87.519 154.775 C 87.796 154.798,88.251 154.984,88.530 155.190 C 89.009 155.543,89.050 155.545,89.248 155.236 C 89.432 154.948,89.447 154.960,89.368 155.331 C 89.316 155.577,89.355 155.707,89.461 155.642 C 89.561 155.580,89.802 155.673,89.995 155.848 C 90.189 156.023,90.441 156.109,90.555 156.038 C 90.670 155.967,90.865 155.994,90.990 156.097 C 91.227 156.294,91.312 156.318,91.791 156.318 C 91.956 156.318,92.028 156.408,91.956 156.524 C 91.867 156.669,91.947 156.667,92.227 156.518 C 92.455 156.395,92.626 156.381,92.626 156.483 C 92.626 156.581,92.520 156.709,92.391 156.766 C 92.233 156.836,92.249 156.865,92.438 156.853 C 93.266 156.804,93.748 156.903,93.706 157.114 C 93.676 157.265,93.842 157.326,94.176 157.288 C 94.504 157.251,94.733 157.333,94.801 157.510 C 94.869 157.686,95.075 157.760,95.352 157.710 C 95.596 157.666,95.856 157.728,95.931 157.848 C 96.020 157.993,95.983 158.015,95.820 157.915 C 95.665 157.819,95.619 157.836,95.697 157.962 C 95.765 158.071,95.989 158.117,96.196 158.063 C 96.420 158.004,96.571 158.057,96.571 158.195 C 96.571 158.324,96.697 158.376,96.860 158.314 C 97.024 158.251,97.195 158.323,97.256 158.480 C 97.314 158.633,97.432 158.715,97.517 158.662 C 97.603 158.609,97.723 158.648,97.785 158.749 C 97.848 158.849,98.012 158.888,98.150 158.835 C 98.288 158.782,98.539 158.876,98.708 159.044 C 98.908 159.245,99.014 159.271,99.014 159.120 C 99.014 158.972,99.144 159.008,99.378 159.219 C 99.578 159.400,99.825 159.497,99.926 159.434 C 100.028 159.372,100.234 159.444,100.385 159.595 C 100.536 159.746,100.712 159.817,100.776 159.753 C 100.840 159.689,100.892 159.769,100.892 159.930 C 100.892 160.091,101.019 160.271,101.174 160.331 C 101.329 160.390,101.456 160.357,101.456 160.257 C 101.456 160.157,101.588 160.075,101.749 160.075 C 101.910 160.075,101.990 160.159,101.927 160.261 C 101.861 160.367,101.937 160.399,102.104 160.335 C 102.264 160.273,102.395 160.316,102.395 160.431 C 102.395 160.545,102.485 160.639,102.594 160.639 C 102.704 160.639,102.733 160.541,102.659 160.422 C 102.576 160.287,102.608 160.256,102.742 160.339 C 102.862 160.413,102.966 160.616,102.974 160.791 C 102.982 160.966,103.028 161.012,103.077 160.894 C 103.142 160.735,103.339 160.733,103.833 160.885 C 104.385 161.054,104.441 161.114,104.153 161.227 C 103.870 161.338,103.899 161.366,104.310 161.377 C 104.588 161.384,104.869 161.476,104.934 161.581 C 104.999 161.686,105.152 161.710,105.274 161.634 C 105.675 161.382,105.998 161.410,105.892 161.687 C 105.833 161.839,105.908 161.964,106.065 161.977 C 106.499 162.014,106.595 162.046,107.055 162.301 C 107.293 162.433,107.631 162.514,107.805 162.480 C 107.979 162.447,108.285 162.583,108.485 162.783 C 108.844 163.142,108.851 163.142,108.991 162.785 C 109.119 162.458,109.152 162.497,109.230 163.066 C 109.243 163.160,109.330 163.308,109.424 163.394 C 109.523 163.484,109.541 163.457,109.468 163.329 C 109.398 163.207,109.427 163.054,109.532 162.989 C 109.637 162.924,109.723 162.994,109.723 163.144 C 109.723 163.294,109.854 163.467,110.014 163.529 C 110.180 163.592,110.257 163.561,110.193 163.457 C 110.128 163.353,110.205 163.322,110.371 163.385 C 110.531 163.447,110.662 163.563,110.662 163.643 C 110.662 163.870,111.596 163.993,111.726 163.783 C 111.793 163.675,111.911 163.721,112.008 163.895 C 112.108 164.073,112.299 164.145,112.483 164.075 C 112.675 164.001,112.744 164.032,112.667 164.157 C 112.597 164.270,112.750 164.408,113.020 164.476 C 113.311 164.549,113.451 164.685,113.380 164.825 C 113.317 164.951,113.387 164.905,113.536 164.723 C 113.760 164.449,113.843 164.436,114.018 164.646 C 114.134 164.786,114.166 164.964,114.089 165.042 C 114.013 165.120,114.077 165.166,114.232 165.144 C 114.798 165.063,115.191 165.152,115.078 165.336 C 115.010 165.445,115.201 165.524,115.536 165.524 C 115.869 165.524,116.112 165.622,116.114 165.759 C 116.116 165.904,116.169 165.922,116.255 165.806 C 116.480 165.499,116.983 165.498,117.236 165.803 C 117.366 165.959,117.628 166.087,117.819 166.087 C 118.065 166.087,118.131 166.178,118.046 166.400 C 117.955 166.636,117.991 166.672,118.193 166.546 C 118.598 166.293,118.922 166.285,118.876 166.528 C 118.854 166.647,119.018 166.745,119.241 166.745 C 119.464 166.745,119.718 166.822,119.805 166.916 C 119.898 167.017,119.855 167.025,119.699 166.934 C 119.520 166.830,119.478 166.852,119.571 167.001 C 119.645 167.122,119.785 167.172,119.881 167.113 C 119.978 167.053,120.056 167.094,120.056 167.204 C 120.056 167.313,120.146 167.403,120.255 167.403 C 120.365 167.403,120.400 167.315,120.334 167.207 C 120.163 166.931,121.227 167.197,121.465 167.491 C 121.569 167.618,121.738 167.756,121.841 167.797 C 121.945 167.838,122.014 167.918,121.995 167.974 C 121.976 168.030,122.124 168.088,122.324 168.103 C 122.523 168.118,122.687 168.046,122.687 167.943 C 122.687 167.840,122.773 167.809,122.878 167.874 C 122.983 167.939,123.012 168.084,122.942 168.196 C 122.856 168.336,123.010 168.362,123.429 168.278 C 123.942 168.175,124.023 168.205,123.926 168.458 C 123.842 168.674,123.891 168.729,124.096 168.650 C 124.413 168.528,125.211 168.821,125.784 169.271 C 126.127 169.540,126.137 169.538,125.914 169.249 C 125.703 168.976,125.721 168.948,126.051 169.034 C 126.260 169.089,126.424 169.188,126.415 169.255 C 126.369 169.613,126.476 169.677,126.746 169.452 C 127.003 169.240,127.087 169.253,127.298 169.542 C 127.435 169.729,127.637 169.827,127.747 169.759 C 127.857 169.691,127.947 169.722,127.947 169.828 C 127.947 169.934,128.074 169.972,128.229 169.913 C 128.391 169.851,128.511 169.909,128.511 170.050 C 128.511 170.241,128.561 170.246,128.736 170.070 C 129.049 169.758,129.263 169.789,129.263 170.147 C 129.263 170.338,129.366 170.409,129.544 170.341 C 129.727 170.271,129.827 170.346,129.829 170.555 C 129.832 170.833,129.858 170.838,130.014 170.597 C 130.142 170.398,130.197 170.386,130.199 170.556 C 130.201 170.748,130.289 170.751,130.625 170.572 C 131.008 170.368,131.023 170.376,130.790 170.660 C 130.567 170.930,130.575 170.972,130.848 170.972 C 131.039 170.972,131.116 171.065,131.045 171.207 C 130.979 171.336,131.052 171.287,131.206 171.098 C 131.476 170.767,131.496 170.770,131.710 171.170 C 131.890 171.507,131.968 171.537,132.115 171.326 C 132.249 171.136,132.322 171.126,132.389 171.291 C 132.440 171.414,132.606 171.467,132.758 171.408 C 132.924 171.345,133.014 171.398,132.981 171.541 C 132.946 171.693,133.145 171.786,133.531 171.799 C 133.863 171.809,134.301 171.959,134.503 172.132 C 134.742 172.337,135.089 172.420,135.495 172.370 C 136.029 172.303,136.058 172.318,135.698 172.472 C 135.144 172.707,135.164 172.753,135.833 172.777 C 136.140 172.788,136.346 172.724,136.291 172.636 C 136.237 172.548,136.371 172.475,136.590 172.475 C 136.809 172.475,136.942 172.550,136.885 172.642 C 136.828 172.734,136.914 172.918,137.076 173.053 C 137.319 173.254,137.400 173.250,137.541 173.027 C 137.676 172.813,137.713 172.834,137.717 173.133 C 137.721 173.399,137.768 173.438,137.876 173.268 C 137.994 173.082,138.137 173.114,138.514 173.410 C 138.867 173.688,139.025 173.728,139.091 173.557 C 139.152 173.398,139.283 173.459,139.493 173.744 C 139.822 174.189,140.160 174.302,140.160 173.967 C 140.160 173.858,140.062 173.829,139.943 173.902 C 139.815 173.981,139.777 173.954,139.849 173.837 C 139.917 173.728,140.148 173.684,140.364 173.740 C 140.661 173.818,140.695 173.881,140.504 174.002 C 140.328 174.113,140.393 174.163,140.723 174.170 C 141.305 174.181,142.655 174.802,142.480 174.977 C 142.409 175.048,142.502 175.106,142.685 175.106 C 142.892 175.106,142.980 175.007,142.918 174.845 C 142.848 174.663,142.926 174.613,143.178 174.679 C 143.376 174.730,143.496 174.840,143.445 174.922 C 143.395 175.004,143.522 175.026,143.729 174.972 C 143.993 174.903,144.105 174.966,144.105 175.184 C 144.105 175.431,144.179 175.455,144.461 175.304 C 144.743 175.153,144.880 175.200,145.127 175.533 C 145.298 175.763,145.375 175.824,145.299 175.669 C 145.180 175.427,145.205 175.423,145.478 175.645 C 145.748 175.864,145.845 175.864,146.114 175.645 C 146.333 175.467,146.388 175.461,146.290 175.624 C 146.088 175.960,146.727 176.165,146.960 175.838 C 147.103 175.637,147.120 175.658,147.032 175.927 C 146.941 176.209,146.993 176.259,147.296 176.179 C 147.504 176.125,147.722 176.158,147.781 176.252 C 147.839 176.347,148.091 176.387,148.342 176.341 C 148.592 176.296,148.853 176.351,148.922 176.463 C 149.003 176.593,148.959 176.612,148.802 176.515 C 148.635 176.411,148.602 176.436,148.698 176.592 C 148.776 176.718,148.885 176.777,148.940 176.722 C 148.995 176.667,149.198 176.707,149.391 176.810 C 149.634 176.940,149.742 176.935,149.742 176.793 C 149.742 176.680,149.953 176.825,150.212 177.115 C 150.471 177.405,150.634 177.501,150.573 177.328 C 150.440 176.943,151.004 176.971,151.245 177.361 C 151.376 177.573,151.455 177.575,151.700 177.372 C 151.948 177.167,151.996 177.173,151.996 177.411 C 151.996 177.568,152.125 177.745,152.282 177.806 C 152.520 177.897,152.533 177.849,152.357 177.521 C 152.148 177.129,152.149 177.129,152.616 177.478 C 152.874 177.672,153.038 177.906,152.981 178.000 C 152.924 178.093,152.973 178.111,153.091 178.038 C 153.208 177.966,153.496 178.009,153.730 178.134 C 154.096 178.329,154.125 178.323,153.932 178.089 C 153.751 177.868,153.774 177.817,154.052 177.817 C 154.241 177.817,154.359 177.914,154.313 178.033 C 154.267 178.153,154.403 178.296,154.616 178.351 C 154.841 178.410,155.004 178.361,155.005 178.235 C 155.007 178.101,155.071 178.117,155.172 178.277 C 155.262 178.419,155.423 178.482,155.529 178.417 C 155.635 178.351,155.758 178.404,155.801 178.533 C 155.863 178.718,155.950 178.712,156.198 178.508 C 156.372 178.364,156.569 178.300,156.635 178.367 C 156.702 178.433,156.657 178.488,156.537 178.488 C 155.425 178.488,157.069 179.043,158.384 179.112 C 158.643 179.125,158.972 179.250,159.117 179.390 C 159.261 179.530,159.536 179.603,159.728 179.553 C 159.929 179.500,160.148 179.590,160.245 179.764 C 160.385 180.014,160.465 180.025,160.705 179.826 C 160.927 179.641,161.074 179.636,161.334 179.802 C 161.641 179.999,161.642 180.010,161.343 179.917 C 161.163 179.861,161.015 179.896,161.015 179.997 C 161.015 180.264,161.719 180.218,161.830 179.944 C 161.882 179.814,161.931 179.873,161.939 180.073 C 161.954 180.435,161.957 180.435,162.222 180.073 C 162.486 179.714,162.489 179.714,162.457 180.085 C 162.435 180.332,162.520 180.438,162.705 180.396 C 163.519 180.209,163.672 180.219,163.767 180.466 C 163.842 180.662,163.962 180.686,164.208 180.555 C 164.450 180.425,164.610 180.453,164.779 180.657 C 164.908 180.812,165.055 180.898,165.105 180.847 C 165.156 180.797,165.342 180.833,165.519 180.928 C 166.072 181.223,166.838 181.299,166.845 181.058 C 166.848 180.936,166.930 180.972,167.027 181.139 C 167.154 181.355,167.419 181.425,167.961 181.384 C 168.496 181.343,168.718 181.400,168.718 181.578 C 168.718 181.902,169.290 182.124,169.524 181.890 C 169.714 181.700,170.270 181.825,170.144 182.030 C 170.103 182.097,170.272 182.163,170.519 182.178 C 170.767 182.193,170.932 182.144,170.885 182.069 C 170.839 181.994,170.928 181.932,171.083 181.932 C 171.237 181.932,171.322 182.043,171.270 182.178 C 171.202 182.354,171.333 182.406,171.731 182.359 C 172.055 182.322,172.287 182.382,172.287 182.505 C 172.287 182.627,172.582 182.704,172.992 182.688 C 173.380 182.673,173.697 182.646,173.697 182.627 C 173.697 182.608,173.845 182.564,174.026 182.529 C 174.208 182.494,174.308 182.543,174.250 182.637 C 174.154 182.793,174.415 182.888,174.777 182.831 C 174.854 182.819,174.919 182.915,174.921 183.044 C 174.923 183.200,174.984 183.185,175.106 182.997 C 175.234 182.799,175.289 182.787,175.291 182.956 C 175.293 183.144,175.382 183.150,175.693 182.984 C 176.005 182.817,176.128 182.826,176.254 183.024 C 176.343 183.164,176.416 183.198,176.418 183.100 C 176.420 183.002,176.522 183.023,176.646 183.147 C 176.897 183.397,177.247 183.457,177.103 183.225 C 177.053 183.144,177.170 183.077,177.364 183.077 C 177.649 183.077,177.673 183.129,177.491 183.351 C 177.303 183.580,177.336 183.608,177.689 183.517 C 177.922 183.457,178.112 183.489,178.112 183.589 C 178.112 183.689,178.200 183.716,178.308 183.649 C 178.416 183.583,178.643 183.641,178.814 183.779 C 178.984 183.917,179.065 183.933,178.994 183.815 C 178.923 183.697,178.999 183.549,179.162 183.486 C 179.606 183.316,179.839 183.349,179.707 183.563 C 179.642 183.668,179.489 183.697,179.367 183.627 C 179.245 183.557,179.209 183.571,179.287 183.657 C 179.468 183.855,180.366 183.902,180.366 183.713 C 180.366 183.636,180.500 183.624,180.664 183.686 C 180.884 183.771,180.902 183.837,180.732 183.942 C 180.606 184.020,180.958 184.063,181.515 184.037 C 182.071 184.011,182.612 184.049,182.715 184.122 C 183.070 184.371,183.582 184.500,183.465 184.310 C 183.402 184.208,183.440 184.124,183.549 184.124 C 183.659 184.124,183.748 184.206,183.748 184.307 C 183.748 184.411,183.995 184.441,184.315 184.377 C 184.808 184.278,184.868 184.310,184.770 184.617 C 184.663 184.951,184.672 184.951,184.954 184.605 C 185.118 184.404,185.251 184.338,185.251 184.457 C 185.251 184.577,185.442 184.776,185.674 184.900 C 186.044 185.097,186.068 185.089,185.861 184.838 C 185.655 184.590,185.715 184.559,186.311 184.606 C 186.688 184.636,187.048 184.742,187.111 184.842 C 187.173 184.941,187.801 185.001,188.507 184.976 C 189.213 184.950,189.690 184.991,189.567 185.067 C 189.407 185.166,189.403 185.240,189.553 185.333 C 189.667 185.404,189.839 185.413,189.935 185.353 C 190.032 185.294,190.171 185.344,190.246 185.465 C 190.341 185.619,190.457 185.581,190.635 185.338 C 190.774 185.147,190.888 185.095,190.888 185.222 C 190.888 185.394,190.983 185.402,191.264 185.251 C 191.617 185.062,191.722 185.131,191.655 185.505 C 191.639 185.594,192.016 185.627,192.492 185.579 C 193.068 185.522,193.442 185.578,193.610 185.746 C 193.805 185.941,193.882 185.946,193.941 185.768 C 194.001 185.587,194.129 185.588,194.540 185.776 C 194.937 185.956,195.126 185.962,195.324 185.797 C 195.481 185.667,195.585 185.656,195.585 185.770 C 195.585 185.874,195.754 186.003,195.961 186.057 C 196.168 186.111,196.293 186.085,196.240 185.998 C 196.186 185.912,196.219 185.793,196.314 185.735 C 196.408 185.677,196.540 185.774,196.609 185.952 C 196.712 186.221,196.760 186.230,196.898 186.006 C 197.031 185.790,197.148 185.782,197.498 185.961 C 197.738 186.084,198.166 186.155,198.450 186.119 C 198.826 186.072,198.967 186.137,198.970 186.357 C 198.972 186.611,199.000 186.617,199.142 186.392 C 199.353 186.059,199.913 185.963,200.209 186.208 C 200.563 186.502,201.285 186.580,201.433 186.340 C 201.534 186.176,201.642 186.182,201.863 186.366 C 202.026 186.501,202.342 186.563,202.566 186.504 C 202.790 186.446,203.139 186.487,203.341 186.595 C 203.610 186.739,203.674 186.735,203.577 186.578 C 203.486 186.431,203.655 186.379,204.118 186.410 C 204.488 186.435,204.791 186.523,204.791 186.605 C 204.791 186.687,204.918 186.754,205.073 186.754 C 205.228 186.754,205.355 186.654,205.355 186.531 C 205.355 186.407,205.488 186.471,205.650 186.671 C 205.813 186.872,205.898 186.939,205.839 186.821 C 205.690 186.520,206.288 186.328,206.591 186.579 C 206.729 186.693,206.932 186.731,207.042 186.663 C 207.152 186.594,207.220 186.645,207.191 186.776 C 207.163 186.907,207.290 187.047,207.473 187.087 C 207.657 187.127,207.795 187.090,207.780 187.004 C 207.713 186.624,207.818 186.496,207.985 186.754 C 208.119 186.962,208.168 186.971,208.170 186.788 C 208.172 186.607,208.258 186.624,208.485 186.852 C 208.768 187.135,208.812 187.136,208.964 186.865 C 209.176 186.486,209.789 186.477,209.932 186.850 C 210.062 187.189,210.435 187.144,210.740 186.755 C 210.861 186.600,211.024 186.536,211.101 186.614 C 211.178 186.691,211.143 186.754,211.022 186.754 C 210.902 186.754,210.803 186.839,210.803 186.942 C 210.803 187.046,211.062 187.130,211.378 187.130 C 211.713 187.130,211.904 187.052,211.837 186.942 C 211.773 186.839,211.805 186.754,211.908 186.754 C 212.012 186.754,212.153 186.847,212.223 186.960 C 212.293 187.073,212.549 187.127,212.792 187.081 C 213.035 187.035,213.190 187.069,213.135 187.157 C 213.080 187.246,213.118 187.318,213.219 187.318 C 213.320 187.318,213.452 187.212,213.512 187.083 C 213.599 186.895,213.643 186.895,213.731 187.083 C 213.791 187.212,214.008 187.318,214.212 187.318 C 214.416 187.318,214.544 187.255,214.496 187.177 C 214.373 186.978,217.126 187.001,217.316 187.200 C 217.405 187.294,217.270 187.309,217.003 187.235 C 216.695 187.150,216.619 187.165,216.782 187.278 C 216.919 187.373,217.384 187.425,217.816 187.393 C 219.590 187.262,222.056 187.284,222.293 187.432 C 222.432 187.519,222.757 187.611,223.016 187.635 C 223.414 187.674,223.430 187.658,223.120 187.531 C 222.772 187.389,222.775 187.375,223.178 187.270 C 223.453 187.198,223.638 187.253,223.705 187.427 C 223.822 187.731,224.625 187.789,224.800 187.506 C 224.864 187.403,225.001 187.318,225.104 187.318 C 225.208 187.318,225.240 187.403,225.176 187.506 C 224.978 187.827,225.685 187.712,225.925 187.383 C 226.105 187.138,226.184 187.124,226.304 187.319 C 226.404 187.481,226.382 187.518,226.239 187.430 C 226.119 187.356,226.022 187.387,226.022 187.498 C 226.022 187.620,226.393 187.688,226.954 187.668 C 227.519 187.648,227.840 187.561,227.770 187.447 C 227.704 187.340,227.750 187.319,227.876 187.397 C 227.999 187.473,228.646 187.540,229.315 187.547 C 229.983 187.554,230.531 187.611,230.531 187.674 C 230.531 187.737,231.313 187.770,232.269 187.748 C 233.224 187.727,234.007 187.702,234.007 187.693 C 234.007 187.685,234.958 187.660,236.120 187.639 C 237.283 187.617,238.234 187.662,238.234 187.738 C 238.234 187.994,247.964 187.900,248.069 187.643 C 248.141 187.463,248.165 187.464,248.177 187.647 C 248.188 187.831,249.943 187.882,256.282 187.882 C 262.704 187.882,264.343 187.833,264.231 187.647 C 264.138 187.492,264.200 187.502,264.413 187.674 C 264.675 187.887,265.330 187.914,267.878 187.814 C 269.606 187.746,271.484 187.687,272.053 187.683 C 272.621 187.679,273.678 187.664,274.401 187.650 C 275.124 187.636,276.712 187.635,277.929 187.648 C 279.288 187.664,280.098 187.604,280.030 187.494 C 279.969 187.396,280.137 187.414,280.403 187.535 C 280.777 187.706,280.985 187.703,281.324 187.521 C 281.603 187.372,282.316 187.310,283.295 187.350 C 284.139 187.384,284.829 187.367,284.829 187.311 C 284.829 187.255,284.998 187.197,285.204 187.182 C 285.411 187.166,285.580 187.230,285.580 187.324 C 285.580 187.417,285.714 187.443,285.878 187.380 C 286.117 187.288,286.126 187.235,285.925 187.107 C 285.754 186.998,285.745 186.947,285.898 186.945 C 286.021 186.944,286.174 187.027,286.238 187.130 C 286.302 187.233,286.497 187.317,286.671 187.315 C 286.946 187.313,286.950 187.287,286.707 187.128 C 286.504 186.995,286.608 186.966,287.083 187.024 C 287.445 187.069,287.851 187.110,287.987 187.117 C 288.123 187.124,288.173 187.226,288.099 187.347 C 288.015 187.482,288.047 187.513,288.184 187.428 C 288.305 187.353,288.361 187.222,288.309 187.137 C 288.256 187.052,288.783 187.001,289.480 187.025 C 290.177 187.049,290.641 187.033,290.512 186.990 C 290.383 186.946,290.277 186.820,290.277 186.710 C 290.277 186.599,290.425 186.640,290.606 186.801 C 290.994 187.147,292.370 187.145,292.485 186.799 C 292.580 186.516,293.095 186.487,293.095 186.765 C 293.095 186.875,292.990 186.905,292.860 186.832 C 292.673 186.726,292.673 186.750,292.860 186.952 C 293.043 187.149,293.145 187.155,293.321 186.980 C 293.445 186.856,293.915 186.754,294.365 186.754 C 294.816 186.754,295.142 186.685,295.089 186.601 C 295.037 186.517,295.378 186.428,295.847 186.404 C 296.397 186.375,296.656 186.429,296.579 186.554 C 296.498 186.685,296.601 186.694,296.890 186.582 C 297.128 186.490,297.300 186.301,297.273 186.162 C 297.236 185.974,297.284 185.981,297.461 186.191 C 297.723 186.502,298.460 186.699,298.282 186.411 C 298.221 186.311,298.304 186.179,298.466 186.116 C 298.896 185.952,298.959 185.974,298.801 186.238 C 298.695 186.414,298.727 186.423,298.931 186.272 C 299.080 186.161,299.682 186.080,300.269 186.092 C 300.856 186.103,301.298 186.051,301.252 185.977 C 301.206 185.902,301.254 185.788,301.359 185.723 C 301.464 185.658,301.550 185.676,301.550 185.764 C 301.550 185.851,301.719 185.922,301.926 185.922 C 302.132 185.922,302.302 185.814,302.302 185.681 C 302.302 185.392,302.979 185.356,303.152 185.636 C 303.231 185.763,303.491 185.705,303.891 185.469 C 304.267 185.247,304.605 185.165,304.758 185.260 C 305.038 185.433,305.363 185.305,305.222 185.077 C 305.172 184.995,305.424 184.952,305.783 184.980 C 306.183 185.012,306.436 184.947,306.438 184.813 C 306.440 184.670,306.496 184.681,306.600 184.844 C 306.727 185.045,306.782 185.033,306.877 184.785 C 306.942 184.615,307.082 184.529,307.188 184.595 C 307.600 184.849,308.314 184.881,308.314 184.644 C 308.314 184.494,308.574 184.406,309.018 184.406 C 309.445 184.406,309.707 184.321,309.683 184.191 C 309.660 184.073,309.808 183.933,310.011 183.880 C 310.214 183.827,310.380 183.860,310.380 183.954 C 310.380 184.047,310.560 184.124,310.779 184.124 C 311.119 184.124,311.142 184.081,310.935 183.832 C 310.735 183.590,310.739 183.549,310.959 183.597 C 311.106 183.628,311.281 183.730,311.348 183.823 C 311.415 183.915,311.626 183.926,311.818 183.847 C 312.009 183.768,312.408 183.680,312.706 183.652 C 313.003 183.624,313.299 183.525,313.363 183.433 C 313.428 183.341,313.628 183.258,313.809 183.249 C 314.463 183.215,314.534 183.181,314.403 182.969 C 314.309 182.817,314.421 182.792,314.786 182.883 C 315.092 182.960,315.409 182.924,315.565 182.794 C 315.710 182.673,315.829 182.621,315.829 182.678 C 315.829 182.734,316.298 182.615,316.872 182.414 C 317.446 182.212,317.987 182.091,318.074 182.145 C 318.161 182.199,318.283 182.111,318.345 181.949 C 318.422 181.747,318.582 181.695,318.858 181.783 C 319.127 181.868,319.216 181.842,319.129 181.702 C 318.993 181.480,319.183 181.434,320.002 181.487 C 320.283 181.506,320.939 181.306,321.462 181.043 C 322.407 180.569,322.411 180.568,322.210 180.983 L 322.008 181.400 322.377 180.977 C 322.748 180.553,323.092 180.390,322.875 180.742 C 322.811 180.845,322.848 180.930,322.957 180.930 C 323.067 180.930,323.156 180.848,323.156 180.748 C 323.156 180.648,323.283 180.615,323.438 180.674 C 323.619 180.744,323.720 180.670,323.720 180.469 C 323.720 180.297,323.790 180.199,323.874 180.252 C 323.959 180.304,324.255 180.230,324.532 180.086 C 324.809 179.942,325.035 179.905,325.035 180.002 C 325.035 180.257,325.344 180.219,325.636 179.926 C 325.775 179.788,326.029 179.695,326.200 179.720 C 326.376 179.746,326.475 179.668,326.427 179.543 C 326.380 179.420,326.508 179.307,326.711 179.292 C 326.976 179.272,327.053 179.353,326.983 179.580 C 326.918 179.791,326.962 179.772,327.115 179.521 C 327.460 178.958,327.484 178.946,327.673 179.245 C 327.789 179.428,327.849 179.443,327.851 179.288 C 327.852 179.160,328.192 179.002,328.605 178.935 C 329.018 178.869,329.357 178.759,329.357 178.690 C 329.357 178.621,329.589 178.571,329.873 178.580 C 330.481 178.600,331.282 178.152,331.117 177.885 C 331.054 177.782,331.186 177.797,331.411 177.917 C 331.636 178.038,331.921 178.095,332.044 178.045 C 332.187 177.987,332.167 177.948,331.990 177.939 C 331.836 177.931,332.005 177.766,332.364 177.574 C 332.961 177.253,333.036 177.249,333.254 177.527 C 333.470 177.804,333.482 177.803,333.383 177.518 C 333.259 177.161,333.817 176.905,334.309 177.094 C 334.515 177.173,334.617 177.114,334.617 176.915 C 334.617 176.685,334.745 176.644,335.181 176.731 C 335.601 176.815,335.744 176.774,335.744 176.570 C 335.744 176.377,335.945 176.303,336.431 176.320 C 336.891 176.335,337.230 176.222,337.458 175.977 C 337.742 175.673,337.847 175.653,338.091 175.855 C 338.342 176.064,338.365 176.048,338.255 175.743 C 338.185 175.547,338.196 175.450,338.279 175.525 C 338.363 175.601,338.546 175.517,338.686 175.338 C 338.920 175.036,338.930 175.040,338.817 175.388 C 338.721 175.684,338.745 175.717,338.934 175.543 C 339.065 175.422,339.289 175.368,339.431 175.422 C 339.573 175.477,339.690 175.428,339.690 175.314 C 339.690 175.199,339.780 175.106,339.889 175.106 C 339.998 175.106,340.024 175.211,339.947 175.341 C 339.768 175.637,340.479 175.100,340.681 174.785 C 340.762 174.660,340.955 174.607,341.111 174.667 C 341.267 174.726,341.554 174.632,341.748 174.456 C 341.942 174.281,342.255 174.153,342.445 174.173 C 343.215 174.254,343.500 174.173,343.299 173.931 C 343.152 173.755,343.212 173.697,343.540 173.697 C 343.779 173.697,343.936 173.760,343.888 173.837 C 343.840 173.915,343.884 173.978,343.985 173.978 C 344.085 173.978,344.200 173.883,344.238 173.767 C 344.277 173.651,344.539 173.556,344.821 173.556 C 345.103 173.556,345.378 173.483,345.434 173.393 C 345.489 173.304,345.411 173.278,345.261 173.336 C 345.111 173.393,344.942 173.364,344.884 173.272 C 344.765 173.078,345.441 173.091,345.636 173.286 C 345.707 173.357,345.849 173.415,345.953 173.415 C 346.056 173.415,346.089 173.363,346.027 173.301 C 345.849 173.123,346.330 172.699,346.594 172.801 C 346.723 172.851,346.829 172.784,346.829 172.652 C 346.829 172.520,346.885 172.468,346.953 172.536 C 347.021 172.604,347.183 172.572,347.312 172.465 C 347.476 172.328,347.587 172.332,347.676 172.477 C 347.763 172.618,347.880 172.583,348.036 172.370 C 348.167 172.191,348.568 172.035,348.958 172.011 C 349.337 171.988,349.796 171.841,349.977 171.683 C 350.157 171.526,350.423 171.439,350.566 171.491 C 350.713 171.544,350.775 171.500,350.708 171.392 C 350.643 171.286,350.720 171.149,350.880 171.088 C 351.046 171.024,351.121 171.056,351.056 171.162 C 350.992 171.264,351.120 171.348,351.339 171.348 C 351.558 171.348,351.690 171.272,351.633 171.180 C 351.575 171.087,351.659 170.961,351.819 170.900 C 352.011 170.827,352.069 170.868,351.990 171.021 C 351.924 171.149,352.046 171.043,352.260 170.784 C 352.593 170.384,352.680 170.356,352.844 170.597 C 353.015 170.846,353.063 170.845,353.268 170.585 C 353.534 170.248,354.045 170.007,354.721 169.902 C 354.979 169.861,355.287 169.701,355.406 169.545 C 355.525 169.389,355.652 169.340,355.688 169.436 C 355.729 169.544,355.932 169.545,356.219 169.437 C 356.598 169.294,356.633 169.230,356.407 169.087 C 356.238 168.980,356.217 168.910,356.353 168.908 C 356.476 168.907,356.632 168.994,356.699 169.103 C 356.781 169.235,356.917 169.220,357.115 169.056 C 357.276 168.921,357.574 168.840,357.776 168.874 C 357.988 168.910,358.094 168.856,358.026 168.746 C 357.854 168.468,358.304 168.253,358.922 168.318 C 359.330 168.361,359.423 168.314,359.309 168.123 C 359.185 167.918,359.211 167.916,359.451 168.109 C 359.689 168.303,359.787 168.294,359.981 168.060 C 360.153 167.853,360.285 167.829,360.459 167.973 C 360.630 168.115,360.739 168.108,360.839 167.946 C 360.928 167.803,360.899 167.769,360.762 167.854 C 360.642 167.928,360.545 167.889,360.545 167.768 C 360.545 167.629,360.757 167.579,361.117 167.632 C 361.528 167.692,361.662 167.648,361.596 167.475 C 361.538 167.324,361.605 167.273,361.776 167.338 C 361.926 167.396,362.048 167.335,362.048 167.203 C 362.048 167.072,362.104 167.021,362.174 167.090 C 362.243 167.159,362.469 167.067,362.676 166.886 C 362.883 166.705,362.985 166.672,362.902 166.812 C 362.714 167.132,363.567 166.906,363.783 166.579 C 363.874 166.441,363.923 166.465,363.927 166.651 C 363.931 166.884,363.961 166.888,364.096 166.674 C 364.187 166.532,364.355 166.473,364.471 166.545 C 364.586 166.616,364.733 166.538,364.798 166.370 C 364.862 166.203,365.009 166.101,365.125 166.145 C 365.241 166.188,365.505 166.156,365.712 166.075 L 366.087 165.926 365.712 165.910 C 365.399 165.896,365.383 165.863,365.618 165.712 C 365.964 165.488,366.427 165.466,366.295 165.680 C 366.241 165.766,366.317 165.837,366.463 165.837 C 366.609 165.837,366.695 165.784,366.655 165.718 C 366.615 165.653,366.660 165.477,366.754 165.327 C 366.893 165.108,366.928 165.128,366.933 165.430 C 366.937 165.700,366.982 165.737,367.094 165.561 C 367.179 165.427,367.452 165.294,367.701 165.266 C 367.950 165.239,368.333 165.120,368.551 165.001 C 368.769 164.883,369.227 164.737,369.568 164.677 C 370.355 164.539,370.541 164.422,370.383 164.167 C 370.306 164.043,370.344 164.017,370.480 164.101 C 370.756 164.271,372.229 164.042,372.109 163.847 C 372.061 163.770,372.145 163.708,372.296 163.708 C 372.446 163.708,372.569 163.778,372.569 163.864 C 372.569 163.950,372.651 164.021,372.751 164.021 C 372.851 164.021,372.884 163.893,372.824 163.737 C 372.746 163.534,372.801 163.486,373.018 163.569 C 373.185 163.633,373.321 163.594,373.321 163.483 C 373.321 163.372,373.448 163.330,373.603 163.389 C 373.758 163.449,373.884 163.395,373.884 163.269 C 373.884 163.144,374.011 163.090,374.166 163.149 C 374.321 163.209,374.448 163.178,374.448 163.081 C 374.448 162.984,374.575 162.954,374.730 163.013 C 374.885 163.073,375.012 163.023,375.012 162.902 C 375.012 162.782,375.098 162.736,375.203 162.801 C 375.308 162.866,375.344 163.019,375.282 163.141 C 375.221 163.263,375.347 163.163,375.561 162.920 C 375.800 162.648,375.952 162.575,375.954 162.732 C 375.956 162.937,375.990 162.934,376.128 162.718 C 376.269 162.494,376.349 162.490,376.594 162.694 C 376.846 162.902,376.891 162.886,376.893 162.588 C 376.895 162.386,376.955 162.319,377.034 162.430 C 377.161 162.609,377.308 162.627,377.971 162.546 C 378.100 162.530,378.185 162.412,378.159 162.283 C 378.133 162.152,378.257 162.072,378.441 162.103 C 378.621 162.133,378.771 162.049,378.772 161.915 C 378.774 161.740,378.831 161.751,378.974 161.954 C 379.117 162.155,379.200 162.172,379.266 162.011 C 379.316 161.888,379.468 161.830,379.603 161.881 C 379.738 161.933,379.986 161.838,380.154 161.670 C 380.323 161.501,380.460 161.449,380.460 161.553 C 380.460 161.657,380.629 161.730,380.836 161.714 C 381.043 161.699,381.212 161.625,381.212 161.551 C 381.212 161.477,381.444 161.421,381.729 161.427 C 382.692 161.447,382.927 161.393,382.797 161.184 C 382.713 161.047,382.812 161.053,383.091 161.202 C 383.419 161.378,383.481 161.378,383.372 161.201 C 383.272 161.040,383.343 161.010,383.615 161.096 C 383.826 161.163,384.055 161.126,384.124 161.015 C 384.193 160.903,384.412 160.863,384.610 160.926 C 384.827 160.995,384.969 160.951,384.969 160.816 C 384.969 160.667,385.160 160.630,385.540 160.706 C 385.944 160.787,386.141 160.741,386.215 160.550 C 386.287 160.361,386.486 160.313,386.870 160.390 C 387.240 160.463,387.532 160.400,387.755 160.199 C 388.219 159.778,389.485 159.595,389.690 159.918 C 389.782 160.064,389.850 160.082,389.852 159.960 C 389.853 159.839,390.052 159.789,390.324 159.841 C 390.592 159.892,390.794 159.843,390.794 159.727 C 390.794 159.615,390.646 159.569,390.465 159.626 C 390.174 159.716,390.171 159.705,390.438 159.531 C 390.627 159.409,390.951 159.395,391.300 159.495 C 391.627 159.589,391.989 159.582,392.173 159.479 C 392.346 159.382,392.566 159.352,392.661 159.410 C 392.756 159.469,392.896 159.419,392.970 159.298 C 393.061 159.151,393.024 159.128,392.860 159.230 C 392.692 159.334,392.660 159.309,392.759 159.148 C 392.863 158.980,392.960 158.972,393.107 159.119 C 393.405 159.417,393.612 159.370,393.612 159.004 C 393.612 158.756,393.662 158.735,393.837 158.910 C 394.110 159.183,394.432 159.211,394.270 158.948 C 394.119 158.705,394.420 158.704,394.662 158.946 C 394.839 159.123,395.407 159.023,396.320 158.654 C 396.600 158.540,396.645 158.567,396.523 158.775 C 396.436 158.922,396.564 158.873,396.806 158.666 C 397.089 158.425,397.196 158.391,397.106 158.572 C 397.023 158.739,397.075 158.720,397.236 158.525 C 397.581 158.104,397.763 158.104,397.628 158.525 C 397.539 158.801,397.554 158.809,397.721 158.572 C 397.947 158.251,398.303 158.193,398.618 158.426 C 398.747 158.522,398.953 158.465,399.135 158.283 C 399.301 158.117,399.436 158.058,399.436 158.152 C 399.436 158.245,399.562 158.322,399.715 158.322 C 399.926 158.322,399.944 158.261,399.786 158.071 C 399.634 157.888,399.635 157.821,399.789 157.821 C 399.945 157.821,400.000 137.131,400.000 78.910 L 400.000 0.000 200.000 0.000 L 0.000 0.000 0.000 72.016 " stroke="none" fill="#e4e4e4" fill-rule="evenodd"></path><path id="path1" d="M33.714 139.802 C 33.636 139.928,33.161 139.979,32.494 139.934 C 31.893 139.893,31.441 139.924,31.489 140.002 C 31.538 140.081,32.568 140.133,33.778 140.119 C 34.989 140.104,35.705 140.060,35.369 140.020 C 35.033 139.980,34.758 139.869,34.758 139.772 C 34.758 139.526,33.869 139.551,33.714 139.802 M29.685 139.910 C 29.685 140.013,29.330 140.112,28.896 140.129 C 27.761 140.173,27.624 140.464,28.735 140.469 C 29.596 140.473,30.115 140.151,29.784 139.820 C 29.730 139.766,29.685 139.806,29.685 139.910 M38.824 140.254 C 38.863 140.357,39.310 140.451,39.816 140.462 C 40.482 140.477,40.682 140.425,40.541 140.274 C 40.298 140.014,38.724 139.995,38.824 140.254 M25.990 140.668 C 25.990 140.818,26.213 140.906,26.570 140.896 C 26.888 140.888,27.043 140.839,26.913 140.786 C 26.783 140.734,26.724 140.614,26.782 140.521 C 26.840 140.427,26.686 140.367,26.439 140.387 C 26.192 140.408,25.990 140.534,25.990 140.668 M41.772 140.636 C 41.772 140.858,41.960 140.916,42.576 140.884 C 43.018 140.861,43.340 140.777,43.290 140.697 C 43.241 140.617,43.077 140.600,42.925 140.658 C 42.773 140.716,42.649 140.670,42.649 140.556 C 42.649 140.441,42.452 140.348,42.211 140.348 C 41.942 140.348,41.772 140.459,41.772 140.636 M24.930 140.657 C 24.683 140.904,24.802 141.144,25.064 140.926 C 25.246 140.775,25.358 140.769,25.426 140.908 C 25.482 141.024,25.505 141.012,25.479 140.881 C 25.425 140.607,25.109 140.478,24.930 140.657 M43.646 140.782 C 43.581 140.887,43.625 140.911,43.747 140.835 C 43.867 140.761,43.964 140.791,43.964 140.900 C 43.964 141.170,44.385 141.151,44.777 140.864 C 45.057 140.660,45.013 140.627,44.430 140.612 C 44.062 140.603,43.710 140.680,43.646 140.782 M23.426 141.170 C 23.359 141.345,23.473 141.428,23.782 141.428 C 24.297 141.428,24.387 141.197,23.940 141.025 C 23.542 140.873,23.540 140.873,23.426 141.170 M45.602 141.231 C 45.740 141.590,46.534 141.527,46.680 141.146 C 46.780 140.882,46.758 140.864,46.568 141.052 C 46.292 141.326,45.958 141.369,46.118 141.110 C 46.178 141.013,46.065 140.946,45.868 140.961 C 45.657 140.977,45.547 141.089,45.602 141.231 M47.346 141.387 C 47.346 141.691,47.640 141.760,47.804 141.495 C 47.861 141.402,47.781 141.278,47.627 141.219 C 47.456 141.153,47.346 141.219,47.346 141.387 M21.877 141.493 C 21.807 141.606,21.551 141.660,21.308 141.614 C 21.040 141.562,20.912 141.604,20.984 141.719 C 21.056 141.836,20.945 141.869,20.696 141.804 C 20.431 141.734,20.291 141.784,20.291 141.949 C 20.291 142.140,20.429 142.161,20.866 142.035 C 21.182 141.945,21.551 141.913,21.686 141.965 C 21.827 142.019,21.976 141.893,22.034 141.673 C 22.144 141.250,22.076 141.171,21.877 141.493 M49.977 142.085 C 49.977 142.163,50.188 142.226,50.446 142.226 C 50.705 142.226,50.916 142.309,50.916 142.410 C 50.916 142.511,51.156 142.545,51.453 142.485 C 51.841 142.408,52.021 142.461,52.104 142.678 C 52.248 143.052,52.544 143.071,52.544 142.707 C 52.544 142.557,52.495 142.448,52.435 142.465 C 52.374 142.481,52.141 142.392,51.916 142.267 C 51.691 142.142,51.360 142.096,51.181 142.165 C 50.991 142.238,50.901 142.215,50.966 142.110 C 51.028 142.009,50.833 141.932,50.527 141.936 C 50.224 141.940,49.977 142.007,49.977 142.085 M18.976 142.200 C 18.976 142.393,19.545 142.659,19.677 142.528 C 19.722 142.482,19.583 142.350,19.368 142.235 C 19.152 142.120,18.976 142.104,18.976 142.200 M17.849 142.649 C 17.849 142.796,17.978 142.915,18.136 142.915 C 18.461 142.915,18.413 142.571,18.072 142.457 C 17.949 142.416,17.849 142.503,17.849 142.649 M52.795 142.707 C 52.795 142.868,52.879 142.948,52.983 142.884 C 53.086 142.820,53.171 142.871,53.171 142.998 C 53.171 143.125,53.215 143.184,53.269 143.130 C 53.409 142.990,53.163 142.414,52.963 142.414 C 52.870 142.414,52.795 142.546,52.795 142.707 M16.193 142.943 C 16.006 143.130,15.731 143.246,15.582 143.201 C 15.358 143.133,15.354 143.163,15.560 143.377 C 15.769 143.596,15.847 143.582,16.064 143.288 C 16.205 143.097,16.411 142.996,16.521 143.064 C 16.631 143.132,16.721 143.056,16.721 142.895 C 16.721 142.516,16.610 142.526,16.193 142.943 M17.285 142.801 C 17.285 142.911,17.201 142.948,17.097 142.884 C 16.994 142.820,16.909 142.857,16.909 142.967 C 16.909 143.197,16.960 143.207,17.364 143.052 C 17.691 142.926,17.770 142.602,17.473 142.602 C 17.370 142.602,17.285 142.692,17.285 142.801 M53.672 142.727 C 53.436 142.963,53.546 143.166,53.911 143.166 C 54.112 143.166,54.328 143.250,54.392 143.354 C 54.592 143.677,55.237 143.569,55.234 143.213 C 55.232 142.932,55.205 142.925,55.049 143.166 C 54.920 143.366,54.866 143.378,54.864 143.205 C 54.863 143.071,54.756 142.975,54.627 142.992 C 54.149 143.054,53.903 142.973,54.016 142.790 C 54.145 142.581,53.868 142.531,53.672 142.727 M14.196 143.454 C 13.840 143.723,13.841 143.729,14.243 143.729 C 14.484 143.729,14.655 143.612,14.655 143.448 C 14.655 143.108,14.653 143.108,14.196 143.454 M55.425 143.355 C 55.425 143.446,55.510 143.572,55.615 143.637 C 55.839 143.775,56.630 143.556,56.473 143.399 C 56.291 143.218,55.425 143.181,55.425 143.355 M11.605 143.886 C 11.686 144.097,11.630 144.108,11.321 143.943 C 11.029 143.787,10.887 143.798,10.728 143.988 C 10.526 144.232,10.724 144.254,11.946 144.126 C 12.285 144.091,12.174 143.622,11.827 143.622 C 11.627 143.622,11.542 143.722,11.605 143.886 M13.152 143.692 C 13.152 143.810,13.025 143.857,12.870 143.797 C 12.715 143.738,12.588 143.783,12.588 143.897 C 12.588 144.012,12.710 144.105,12.859 144.105 C 13.165 144.105,13.436 143.763,13.264 143.592 C 13.202 143.530,13.152 143.575,13.152 143.692 M56.972 143.675 C 56.738 143.720,56.595 143.835,56.655 143.931 C 56.822 144.201,57.252 144.137,57.372 143.823 C 57.431 143.668,57.462 143.553,57.439 143.567 C 57.416 143.581,57.206 143.630,56.972 143.675 M57.742 143.999 C 57.742 144.120,57.934 144.218,58.169 144.218 C 58.655 144.218,58.607 144.007,58.090 143.872 C 57.899 143.822,57.742 143.879,57.742 143.999 M9.347 144.179 C 8.932 144.494,8.924 144.715,9.329 144.636 C 9.500 144.602,9.662 144.427,9.688 144.246 C 9.745 143.859,9.763 143.863,9.347 144.179 M0.000 144.387 C 0.000 144.542,0.085 144.669,0.188 144.669 C 0.291 144.669,0.376 144.587,0.376 144.487 C 0.376 144.387,0.524 144.352,0.705 144.411 C 0.982 144.500,0.989 144.485,0.752 144.314 C 0.349 144.024,0.000 144.058,0.000 144.387 M8.214 144.425 C 8.341 144.756,8.830 144.735,8.830 144.399 C 8.830 144.250,8.671 144.141,8.475 144.155 C 8.268 144.171,8.159 144.283,8.214 144.425 M1.754 144.540 C 1.754 144.676,2.006 144.798,2.333 144.820 C 2.726 144.846,2.830 144.805,2.656 144.693 C 2.440 144.552,2.440 144.511,2.656 144.425 C 2.835 144.354,2.813 144.318,2.583 144.308 C 2.403 144.300,2.255 144.388,2.255 144.504 C 2.255 144.658,2.188 144.659,2.004 144.507 C 1.817 144.352,1.754 144.361,1.754 144.540 M4.969 144.470 C 4.871 144.567,4.368 144.678,3.852 144.718 C 3.057 144.778,3.114 144.794,4.227 144.820 C 5.135 144.841,5.455 144.795,5.261 144.669 C 5.034 144.522,5.064 144.486,5.413 144.484 C 5.655 144.482,5.795 144.564,5.730 144.669 C 5.667 144.772,5.699 144.857,5.802 144.857 C 6.134 144.857,6.208 144.524,5.902 144.407 C 5.481 144.245,5.176 144.266,4.969 144.470 M61.327 145.071 C 61.242 145.208,61.273 145.240,61.410 145.156 C 61.530 145.082,61.673 145.139,61.729 145.283 C 61.846 145.588,62.420 145.646,62.319 145.342 C 62.282 145.230,62.174 145.137,62.079 145.136 C 61.984 145.134,61.807 145.069,61.685 144.992 C 61.563 144.914,61.402 144.950,61.327 145.071 M62.758 145.508 C 62.595 145.704,62.586 145.796,62.729 145.796 C 62.845 145.796,62.940 145.701,62.940 145.585 C 62.940 145.448,63.050 145.465,63.253 145.632 C 63.519 145.852,63.552 145.850,63.476 145.620 C 63.346 145.227,63.032 145.178,62.758 145.508 M63.692 145.819 C 63.692 146.018,63.956 146.138,64.600 146.231 C 64.841 146.265,65.094 146.383,65.163 146.492 C 65.232 146.600,65.669 146.752,66.134 146.828 C 66.879 146.950,67.124 146.752,66.411 146.605 C 66.259 146.573,65.986 146.512,65.806 146.468 C 65.625 146.424,65.408 146.382,65.325 146.374 C 65.241 146.366,65.225 146.275,65.289 146.172 C 65.353 146.069,65.294 145.971,65.159 145.955 C 64.893 145.924,64.593 145.861,64.443 145.803 C 64.076 145.663,63.692 145.670,63.692 145.819 M67.399 146.849 C 67.200 147.048,67.230 147.341,67.437 147.213 C 67.533 147.154,67.665 147.191,67.729 147.296 C 67.911 147.590,68.201 147.522,68.201 147.185 C 68.201 147.000,68.097 146.923,67.931 146.987 C 67.783 147.044,67.633 147.005,67.599 146.901 C 67.564 146.797,67.474 146.774,67.399 146.849 M68.660 147.595 C 68.459 147.758,68.386 147.846,68.496 147.792 C 68.607 147.738,68.930 147.815,69.214 147.962 C 69.683 148.206,69.724 148.200,69.663 147.905 C 69.623 147.711,69.459 147.605,69.256 147.641 C 69.052 147.676,68.965 147.619,69.039 147.500 C 69.213 147.218,69.085 147.250,68.660 147.595 M71.860 149.002 C 72.577 149.359,73.086 149.370,73.086 149.027 C 73.086 148.938,72.959 148.865,72.804 148.865 C 72.649 148.865,72.522 148.940,72.522 149.032 C 72.522 149.124,72.334 149.068,72.105 148.907 C 71.875 148.746,71.558 148.618,71.400 148.622 C 71.242 148.626,71.449 148.797,71.860 149.002 M73.883 149.492 C 73.544 149.627,73.791 149.930,74.240 149.930 C 74.450 149.930,74.587 149.830,74.546 149.706 C 74.458 149.442,74.209 149.361,73.883 149.492 M74.823 149.974 C 74.866 150.104,75.022 150.219,75.168 150.231 C 75.703 150.272,76.273 150.540,76.173 150.702 C 76.116 150.794,76.193 150.869,76.343 150.869 C 76.493 150.869,76.664 150.743,76.723 150.589 C 76.782 150.436,76.770 150.327,76.696 150.347 C 76.622 150.368,76.372 150.280,76.139 150.151 C 75.907 150.022,75.716 149.959,75.716 150.012 C 75.716 150.065,75.498 150.025,75.230 149.923 C 74.862 149.783,74.763 149.795,74.823 149.974 M77.390 150.892 C 77.629 151.086,77.921 151.238,78.039 151.230 C 78.188 151.220,78.184 151.187,78.028 151.124 C 77.905 151.074,77.847 150.922,77.899 150.786 C 77.962 150.620,77.825 150.540,77.474 150.540 L 76.955 150.540 77.390 150.892 M78.524 151.463 C 78.302 151.621,78.312 151.637,78.576 151.552 C 78.754 151.495,79.024 151.573,79.176 151.725 C 79.519 152.068,80.721 152.342,80.530 152.034 C 80.459 151.919,80.277 151.872,80.126 151.931 C 79.950 151.998,79.850 151.921,79.850 151.719 C 79.850 151.544,79.744 151.439,79.615 151.485 C 79.486 151.532,79.249 151.502,79.088 151.420 C 78.927 151.338,78.674 151.358,78.524 151.463 M81.103 152.295 C 81.231 152.627,81.916 152.890,81.916 152.607 C 81.916 152.529,81.811 152.462,81.682 152.457 C 81.552 152.453,81.463 152.361,81.483 152.254 C 81.503 152.147,81.406 152.059,81.266 152.059 C 81.127 152.059,81.054 152.165,81.103 152.295 M82.307 152.490 C 82.288 152.764,82.828 153.214,82.986 153.056 C 83.052 152.990,83.003 152.936,82.876 152.936 C 82.749 152.936,82.706 152.838,82.780 152.719 C 82.859 152.591,82.832 152.553,82.713 152.626 C 82.603 152.694,82.469 152.644,82.417 152.514 C 82.358 152.367,82.316 152.358,82.307 152.490 M83.157 153.236 C 83.059 153.491,83.192 153.540,84.077 153.569 C 84.284 153.576,84.565 153.690,84.701 153.822 C 84.838 153.955,85.025 154.063,85.118 154.063 C 85.391 154.063,85.095 153.502,84.808 153.476 C 84.372 153.437,84.276 153.407,83.983 153.220 C 83.548 152.942,83.267 152.948,83.157 153.236 M86.050 154.402 C 86.050 154.552,86.164 154.623,86.313 154.566 C 86.458 154.510,86.630 154.518,86.694 154.582 C 86.887 154.775,87.376 154.796,87.259 154.607 C 87.200 154.511,87.058 154.490,86.944 154.560 C 86.817 154.639,86.778 154.583,86.843 154.413 C 86.918 154.219,86.817 154.138,86.499 154.138 C 86.238 154.138,86.050 154.249,86.050 154.402 M88.304 155.315 C 88.304 155.453,88.410 155.577,88.539 155.590 C 88.668 155.603,88.963 155.634,89.193 155.658 C 89.424 155.682,89.728 155.798,89.868 155.914 C 90.009 156.031,90.172 156.078,90.231 156.019 C 90.290 155.960,90.536 156.014,90.778 156.139 L 91.217 156.366 90.841 155.990 C 90.634 155.782,90.380 155.680,90.277 155.762 C 90.042 155.947,89.434 155.523,89.426 155.170 C 89.422 154.990,89.359 155.013,89.227 155.241 C 89.120 155.424,88.952 155.524,88.853 155.463 C 88.755 155.402,88.714 155.288,88.763 155.209 C 88.812 155.130,88.728 155.065,88.578 155.065 C 88.427 155.065,88.304 155.178,88.304 155.315 M91.310 156.371 C 91.310 156.499,91.549 156.613,91.841 156.625 C 92.133 156.637,92.746 156.882,93.203 157.171 C 93.661 157.459,93.930 157.567,93.802 157.411 C 93.673 157.256,93.631 157.059,93.708 156.975 C 93.784 156.890,93.697 156.875,93.514 156.941 C 93.309 157.014,93.043 156.923,92.825 156.705 C 92.629 156.509,92.431 156.386,92.386 156.432 C 92.340 156.478,92.079 156.431,91.806 156.327 C 91.436 156.187,91.310 156.198,91.310 156.371 M94.129 157.425 C 94.129 157.615,94.701 157.875,94.832 157.744 C 94.879 157.696,94.862 157.568,94.794 157.457 C 94.644 157.215,94.129 157.190,94.129 157.425 M95.124 157.893 C 95.162 158.008,95.355 158.102,95.553 158.102 C 95.752 158.102,95.956 158.145,96.008 158.196 C 96.144 158.333,96.925 158.760,97.038 158.760 C 97.091 158.760,97.135 158.636,97.135 158.484 C 97.135 158.316,97.025 158.250,96.853 158.316 C 96.698 158.376,96.571 158.341,96.571 158.238 C 96.571 158.051,96.012 157.809,95.390 157.727 C 95.205 157.703,95.085 157.778,95.124 157.893 M397.370 158.423 C 397.370 158.517,397.295 158.548,397.203 158.491 C 397.111 158.435,396.932 158.514,396.804 158.668 C 396.470 159.071,396.950 159.046,397.402 158.637 C 397.591 158.466,397.745 158.411,397.745 158.514 C 397.745 158.618,397.985 158.710,398.278 158.718 C 398.572 158.726,398.810 158.633,398.810 158.510 C 398.810 158.380,398.511 158.280,398.090 158.270 C 397.694 158.260,397.370 158.329,397.370 158.423 M97.681 158.795 C 97.468 158.947,97.478 158.964,97.732 158.883 C 97.905 158.828,98.148 158.904,98.271 159.053 C 98.535 159.371,98.826 159.408,98.826 159.125 C 98.826 159.015,98.741 158.978,98.638 159.042 C 98.535 159.106,98.450 159.077,98.450 158.979 C 98.450 158.700,97.975 158.586,97.681 158.795 M393.689 158.990 C 393.715 159.122,393.955 159.238,394.221 159.248 C 394.555 159.261,394.676 159.188,394.609 159.014 C 394.555 158.874,394.431 158.760,394.332 158.760 C 394.234 158.760,394.206 158.845,394.270 158.948 C 394.333 159.051,394.261 159.136,394.108 159.136 C 393.956 159.136,393.788 159.049,393.736 158.943 C 393.683 158.837,393.662 158.858,393.689 158.990 M392.632 159.214 C 392.352 159.419,392.395 159.449,392.961 159.449 C 393.319 159.449,393.591 159.439,393.565 159.427 C 393.539 159.415,393.391 159.309,393.236 159.192 C 393.023 159.032,392.874 159.037,392.632 159.214 M99.877 159.462 C 99.651 159.688,99.775 159.887,100.141 159.887 C 100.348 159.887,100.517 159.812,100.517 159.719 C 100.517 159.508,100.028 159.311,99.877 159.462 M390.376 159.562 C 390.206 159.685,390.231 159.704,390.465 159.629 C 390.646 159.571,390.794 159.605,390.794 159.705 C 390.794 159.805,391.033 159.887,391.326 159.887 C 392.089 159.887,392.002 159.421,391.236 159.404 C 390.895 159.396,390.507 159.467,390.376 159.562 M388.173 159.920 C 387.617 160.126,387.699 160.401,388.304 160.358 C 389.076 160.304,389.135 160.280,389.009 160.075 C 388.945 159.972,388.982 159.887,389.092 159.887 C 389.201 159.887,389.291 159.972,389.291 160.075 C 389.291 160.178,389.375 160.263,389.479 160.263 C 389.582 160.263,389.667 160.135,389.667 159.978 C 389.667 159.675,388.914 159.646,388.173 159.920 M101.456 160.279 C 101.456 160.391,101.562 160.446,101.691 160.401 C 101.820 160.356,102.135 160.482,102.391 160.680 C 102.883 161.062,103.214 160.802,102.765 160.388 C 102.584 160.220,102.559 160.224,102.661 160.404 C 102.843 160.727,102.617 160.699,102.275 160.357 C 101.947 160.030,101.456 159.983,101.456 160.279 M386.285 160.525 C 386.285 160.722,386.448 160.827,386.754 160.827 C 387.013 160.827,387.224 160.742,387.224 160.639 C 387.224 160.535,387.146 160.451,387.052 160.451 C 386.957 160.451,386.745 160.400,386.582 160.337 C 386.387 160.262,386.285 160.327,386.285 160.525 M103.147 160.844 C 103.147 160.938,103.279 161.015,103.440 161.015 C 103.601 161.015,103.681 161.099,103.617 161.202 C 103.484 161.417,103.651 161.424,104.153 161.227 C 104.440 161.114,104.382 161.053,103.824 160.882 C 103.447 160.766,103.147 160.749,103.147 160.844 M384.969 160.827 C 384.969 160.930,385.144 161.015,385.356 161.015 C 385.569 161.015,385.691 160.930,385.627 160.827 C 385.563 160.723,385.389 160.639,385.240 160.639 C 385.091 160.639,384.969 160.723,384.969 160.827 M383.946 161.030 C 383.994 161.108,383.739 161.148,383.379 161.120 C 383.020 161.091,382.762 161.126,382.806 161.198 C 382.955 161.439,384.180 161.385,384.276 161.133 C 384.328 160.999,384.255 160.889,384.114 160.889 C 383.974 160.889,383.898 160.953,383.946 161.030 M105.464 161.709 C 105.464 161.849,105.551 161.936,105.656 161.900 C 105.955 161.801,106.005 161.453,105.720 161.453 C 105.579 161.453,105.464 161.568,105.464 161.709 M381.212 161.589 C 381.212 161.699,381.127 161.736,381.024 161.672 C 380.921 161.608,380.836 161.652,380.836 161.769 C 380.836 162.050,381.440 161.927,381.541 161.625 C 381.584 161.496,381.527 161.390,381.415 161.390 C 381.303 161.390,381.212 161.480,381.212 161.589 M379.333 161.983 C 379.333 162.068,379.540 162.120,379.794 162.100 C 380.320 162.056,380.262 161.897,379.705 161.856 C 379.500 161.841,379.333 161.898,379.333 161.983 M377.389 162.418 C 377.279 162.704,377.582 163.016,377.780 162.818 C 377.842 162.756,377.784 162.705,377.650 162.705 C 377.456 162.705,377.455 162.649,377.642 162.424 C 377.777 162.261,377.795 162.142,377.685 162.142 C 377.580 162.142,377.447 162.266,377.389 162.418 M107.932 162.528 C 107.869 162.629,107.739 162.663,107.643 162.604 C 107.547 162.544,107.468 162.575,107.468 162.673 C 107.468 162.809,108.632 163.128,108.705 163.012 C 108.714 162.998,108.569 162.842,108.383 162.665 C 108.185 162.477,107.999 162.420,107.932 162.528 M108.977 162.752 C 108.974 162.933,109.061 163.081,109.170 163.081 C 109.280 163.081,109.309 163.179,109.235 163.298 C 109.155 163.428,109.183 163.464,109.305 163.389 C 109.417 163.320,109.566 163.355,109.635 163.467 C 109.704 163.579,109.882 163.624,110.031 163.567 C 110.179 163.510,110.347 163.585,110.404 163.733 C 110.461 163.881,110.881 164.059,111.337 164.127 C 111.792 164.195,112.165 164.340,112.165 164.449 C 112.165 164.558,112.215 164.597,112.277 164.536 C 112.338 164.475,112.758 164.583,113.210 164.777 C 114.036 165.131,114.471 165.017,113.948 164.583 C 113.779 164.443,113.668 164.428,113.668 164.545 C 113.668 164.676,113.488 164.672,113.116 164.531 C 112.813 164.417,112.615 164.240,112.678 164.140 C 112.744 164.033,112.658 164.008,112.471 164.080 C 112.271 164.156,112.110 164.095,112.042 163.919 C 111.964 163.715,111.867 163.690,111.698 163.831 C 111.442 164.043,110.900 163.902,110.516 163.522 C 110.384 163.392,110.151 163.333,109.999 163.391 C 109.824 163.458,109.723 163.383,109.723 163.184 C 109.723 163.012,109.644 162.920,109.547 162.980 C 109.450 163.040,109.283 162.939,109.176 162.756 C 108.993 162.442,108.982 162.442,108.977 162.752 M375.012 162.902 C 375.012 163.023,374.885 163.073,374.730 163.013 C 374.558 162.947,374.448 163.013,374.448 163.181 C 374.448 163.540,375.128 163.540,375.265 163.181 C 375.323 163.030,375.290 162.855,375.191 162.794 C 375.093 162.733,375.012 162.782,375.012 162.902 M373.884 163.289 C 373.884 163.404,373.758 163.449,373.603 163.389 C 373.448 163.330,373.321 163.369,373.321 163.476 C 373.321 163.747,374.119 163.604,374.214 163.316 C 374.257 163.187,374.200 163.081,374.088 163.081 C 373.976 163.081,373.884 163.175,373.884 163.289 M372.119 163.864 C 372.172 163.950,372.028 164.021,371.798 164.021 C 371.568 164.021,371.432 164.073,371.496 164.137 C 371.651 164.292,372.569 164.056,372.569 163.861 C 372.569 163.776,372.446 163.708,372.296 163.708 C 372.145 163.708,372.066 163.778,372.119 163.864 M370.443 164.324 C 370.498 164.467,370.661 164.584,370.805 164.584 C 371.195 164.584,371.121 164.267,370.705 164.158 C 370.451 164.091,370.373 164.141,370.443 164.324 M369.003 164.808 C 368.765 164.896,368.610 165.009,368.660 165.059 C 368.791 165.190,369.939 164.939,369.939 164.780 C 369.939 164.600,369.531 164.612,369.003 164.808 M114.420 165.248 C 114.420 165.400,114.547 165.524,114.702 165.524 C 114.857 165.524,114.984 165.448,114.984 165.356 C 114.984 165.264,114.857 165.139,114.702 165.080 C 114.530 165.014,114.420 165.080,114.420 165.248 M366.693 165.389 C 366.623 165.571,366.454 165.660,366.294 165.599 C 366.141 165.540,365.863 165.590,365.676 165.710 C 365.369 165.906,365.368 165.918,365.665 165.826 C 365.853 165.767,365.995 165.821,365.996 165.952 C 365.998 166.097,366.066 166.078,366.181 165.899 C 366.316 165.691,366.364 165.683,366.366 165.866 C 366.368 166.052,366.444 166.039,366.666 165.817 C 366.829 165.654,366.929 165.420,366.888 165.297 C 366.842 165.158,366.768 165.193,366.693 165.389 M367.450 165.285 C 367.048 165.381,367.013 165.649,367.403 165.649 C 367.558 165.649,367.684 165.586,367.684 165.510 C 367.684 165.434,367.853 165.415,368.060 165.469 C 368.267 165.523,368.436 165.491,368.436 165.398 C 368.436 165.213,367.973 165.161,367.450 165.285 M115.855 165.806 C 115.978 166.126,116.406 166.181,116.581 165.899 C 116.644 165.796,116.797 165.718,116.920 165.726 C 117.081 165.737,117.077 165.768,116.908 165.836 C 116.581 165.968,116.809 166.275,117.234 166.275 C 117.426 166.275,117.625 166.381,117.678 166.510 C 117.750 166.687,117.822 166.675,117.970 166.463 C 118.121 166.248,118.091 166.166,117.844 166.115 C 117.666 166.078,117.383 165.927,117.215 165.778 C 116.888 165.489,116.479 165.500,116.255 165.806 C 116.169 165.922,116.116 165.904,116.114 165.759 C 116.112 165.629,116.029 165.524,115.929 165.524 C 115.829 165.524,115.796 165.651,115.855 165.806 M364.958 166.278 C 364.893 166.383,364.748 166.413,364.636 166.343 C 364.515 166.268,364.486 166.305,364.566 166.434 C 364.760 166.747,365.242 166.701,365.242 166.369 C 365.242 166.042,365.127 166.006,364.958 166.278 M118.264 166.475 C 118.218 166.550,118.299 166.657,118.445 166.713 C 118.591 166.769,118.751 166.708,118.802 166.577 C 118.897 166.328,118.412 166.236,118.264 166.475 M119.242 166.776 C 118.984 167.034,119.132 167.209,119.576 167.172 C 119.928 167.143,119.989 167.078,119.835 166.893 C 119.612 166.624,119.430 166.588,119.242 166.776 M362.613 166.931 C 362.486 167.085,362.315 167.170,362.234 167.120 C 362.153 167.070,362.039 167.155,361.980 167.310 C 361.859 167.625,362.330 167.706,362.518 167.403 C 362.581 167.299,362.793 167.215,362.987 167.215 C 363.182 167.215,363.399 167.121,363.469 167.007 C 363.557 166.865,363.463 166.841,363.175 166.933 C 362.887 167.024,362.793 167.001,362.881 166.859 C 363.069 166.555,362.884 166.605,362.613 166.931 M120.324 167.191 C 120.385 167.290,120.328 167.409,120.198 167.457 C 120.069 167.505,120.317 167.533,120.749 167.520 C 121.599 167.495,121.597 167.339,120.745 167.137 C 120.424 167.062,120.257 167.083,120.324 167.191 M121.685 167.715 C 121.461 167.939,121.552 168.197,121.818 168.095 C 121.961 168.040,122.158 168.076,122.257 168.175 C 122.484 168.402,123.100 168.179,122.944 167.926 C 122.872 167.810,122.769 167.833,122.675 167.986 C 122.552 168.184,122.451 168.169,122.166 167.911 C 121.971 167.734,121.754 167.646,121.685 167.715 M360.687 167.715 C 360.817 167.768,360.875 167.888,360.817 167.982 C 360.646 168.258,360.853 168.180,361.109 167.872 C 361.306 167.635,361.272 167.593,360.897 167.605 C 360.651 167.613,360.557 167.663,360.687 167.715 M123.465 168.321 C 123.287 168.434,123.273 168.522,123.418 168.611 C 123.656 168.759,124.002 168.593,124.002 168.331 C 124.002 168.112,123.801 168.109,123.465 168.321 M358.094 168.445 C 357.954 168.614,357.960 168.724,358.114 168.819 C 358.234 168.893,358.393 168.855,358.467 168.735 C 358.541 168.615,358.743 168.571,358.916 168.638 C 359.088 168.704,359.230 168.674,359.230 168.572 C 359.230 168.281,358.316 168.179,358.094 168.445 M124.190 168.718 C 124.190 168.821,124.359 168.906,124.566 168.906 C 124.772 168.906,124.941 168.995,124.941 169.105 C 124.941 169.214,125.037 169.244,125.155 169.172 C 125.292 169.087,125.209 168.952,124.920 168.792 C 124.375 168.489,124.190 168.471,124.190 168.718 M357.159 169.004 C 356.979 169.221,356.865 169.236,356.664 169.069 C 356.520 168.950,356.348 168.906,356.282 168.973 C 356.215 169.039,356.265 169.093,356.391 169.093 C 356.518 169.093,356.562 169.190,356.488 169.309 C 356.394 169.462,356.512 169.485,356.900 169.389 C 357.543 169.231,357.832 168.993,357.576 168.835 C 357.476 168.773,357.288 168.849,357.159 169.004 M125.755 169.192 C 125.755 169.321,125.866 169.411,126.001 169.391 C 126.419 169.329,126.476 169.146,126.107 169.049 C 125.902 168.995,125.755 169.055,125.755 169.192 M126.632 169.563 C 126.441 169.794,126.454 169.845,126.703 169.845 C 126.871 169.845,127.014 169.739,127.021 169.610 C 127.028 169.481,127.122 169.557,127.229 169.780 C 127.337 170.003,127.625 170.223,127.868 170.270 C 128.112 170.316,128.272 170.289,128.222 170.210 C 128.173 170.130,128.197 170.029,128.275 169.986 C 128.353 169.942,128.311 169.932,128.182 169.964 C 128.053 169.995,127.947 169.942,127.947 169.845 C 127.947 169.748,127.831 169.713,127.690 169.768 C 127.548 169.822,127.382 169.735,127.320 169.574 C 127.178 169.205,126.933 169.201,126.632 169.563 M355.487 169.433 C 355.479 169.570,355.376 169.620,355.255 169.545 C 355.121 169.462,355.089 169.494,355.172 169.628 C 355.257 169.765,355.164 169.845,354.919 169.845 C 354.707 169.845,354.533 169.930,354.533 170.033 C 354.533 170.136,354.654 170.221,354.803 170.221 C 354.952 170.221,355.126 170.136,355.190 170.033 C 355.254 169.930,355.465 169.845,355.660 169.845 C 355.854 169.845,356.075 169.746,356.149 169.625 C 356.240 169.479,356.184 169.444,355.985 169.521 C 355.819 169.584,355.643 169.535,355.593 169.412 C 355.528 169.252,355.497 169.258,355.487 169.433 M128.792 170.034 C 128.648 170.267,129.071 170.701,129.435 170.695 C 129.581 170.692,129.736 170.585,129.779 170.455 C 129.829 170.306,129.749 170.262,129.560 170.335 C 129.365 170.410,129.263 170.345,129.263 170.147 C 129.263 169.811,128.973 169.741,128.792 170.034 M353.828 170.115 C 353.596 170.222,353.405 170.379,353.405 170.464 C 353.405 170.549,353.308 170.558,353.188 170.485 C 353.054 170.402,353.023 170.433,353.106 170.567 C 353.288 170.862,353.424 170.835,353.949 170.398 C 354.475 169.959,354.424 169.840,353.828 170.115 M352.403 170.534 C 352.334 170.603,352.279 170.751,352.281 170.863 C 352.283 170.975,352.366 170.939,352.466 170.784 C 352.587 170.597,352.649 170.581,352.651 170.737 C 352.653 170.867,352.736 170.972,352.836 170.972 C 352.936 170.972,352.969 170.845,352.910 170.690 C 352.794 170.389,352.606 170.331,352.403 170.534 M131.329 170.983 C 131.329 171.093,131.224 171.122,131.094 171.047 C 130.965 170.973,130.916 170.975,130.985 171.052 C 131.054 171.129,131.181 171.192,131.267 171.192 C 131.353 171.192,131.543 171.291,131.689 171.411 C 131.914 171.597,131.920 171.565,131.729 171.207 C 131.487 170.752,131.329 170.664,131.329 170.983 M350.116 171.539 C 350.051 171.644,349.906 171.673,349.794 171.604 C 349.672 171.529,349.644 171.565,349.724 171.695 C 349.917 172.008,350.399 171.962,350.399 171.630 C 350.399 171.303,350.284 171.266,350.116 171.539 M133.255 171.950 C 133.302 172.084,133.522 172.187,133.744 172.179 C 133.966 172.170,134.147 172.220,134.147 172.288 C 134.147 172.357,134.274 172.413,134.429 172.413 C 135.134 172.413,134.511 171.931,133.612 171.780 C 133.311 171.729,133.198 171.783,133.255 171.950 M135.087 172.516 C 135.087 172.697,135.255 172.686,135.744 172.474 C 136.069 172.334,136.049 172.316,135.604 172.341 C 135.319 172.357,135.087 172.436,135.087 172.516 M347.325 172.418 C 347.114 172.629,347.197 172.851,347.487 172.851 C 347.642 172.851,347.769 172.772,347.769 172.674 C 347.769 172.437,347.476 172.268,347.325 172.418 M136.277 172.757 C 136.277 172.912,136.427 173.039,136.610 173.039 C 136.794 173.039,136.996 173.124,137.060 173.227 C 137.252 173.538,137.717 173.438,137.714 173.086 C 137.712 172.816,137.681 172.805,137.541 173.027 C 137.400 173.250,137.319 173.254,137.076 173.053 C 136.914 172.918,136.828 172.734,136.885 172.642 C 136.942 172.550,136.828 172.475,136.632 172.475 C 136.437 172.475,136.277 172.602,136.277 172.757 M346.829 172.683 C 346.829 172.798,346.723 172.851,346.594 172.801 C 346.292 172.685,345.822 173.162,346.080 173.322 C 346.182 173.385,346.266 173.347,346.266 173.238 C 346.266 173.129,346.435 173.039,346.642 173.039 C 346.850 173.039,347.017 172.914,347.017 172.757 C 347.017 172.602,346.975 172.475,346.923 172.475 C 346.872 172.475,346.829 172.569,346.829 172.683 M137.905 173.226 C 137.905 173.454,138.432 173.702,138.587 173.547 C 138.643 173.491,138.512 173.351,138.297 173.235 C 138.025 173.090,137.905 173.087,137.905 173.226 M344.866 173.242 C 344.933 173.351,344.811 173.486,344.594 173.543 C 344.245 173.635,344.021 173.978,344.310 173.978 C 344.676 173.978,345.308 173.260,345.035 173.155 C 344.858 173.087,344.791 173.121,344.866 173.242 M138.964 173.697 C 138.899 173.868,138.964 173.978,139.132 173.978 C 139.284 173.978,139.408 173.852,139.408 173.697 C 139.408 173.542,139.333 173.415,139.240 173.415 C 139.148 173.415,139.024 173.542,138.964 173.697 M343.299 173.931 C 343.406 174.061,343.559 174.166,343.638 174.166 C 343.718 174.166,343.824 174.061,343.873 173.931 C 343.929 173.786,343.800 173.697,343.534 173.697 C 343.211 173.697,343.152 173.755,343.299 173.931 M140.654 174.393 C 140.782 174.601,141.287 174.580,141.287 174.366 C 141.287 174.269,141.124 174.202,140.924 174.217 C 140.725 174.232,140.603 174.311,140.654 174.393 M341.850 174.355 C 341.784 174.461,341.653 174.500,341.558 174.441 C 341.463 174.383,341.435 174.464,341.495 174.622 C 341.593 174.877,341.665 174.878,342.149 174.628 C 342.448 174.473,342.728 174.369,342.772 174.397 C 342.817 174.425,342.898 174.402,342.954 174.347 C 343.010 174.291,342.811 174.226,342.513 174.204 C 342.214 174.181,341.916 174.249,341.850 174.355 M141.537 174.599 C 141.537 174.740,141.653 174.855,141.793 174.855 C 142.078 174.855,142.029 174.507,141.729 174.408 C 141.624 174.372,141.537 174.459,141.537 174.599 M142.923 174.857 C 142.980 175.005,143.135 175.085,143.268 175.034 C 143.402 174.983,143.559 175.068,143.619 175.223 C 143.678 175.378,143.812 175.453,143.916 175.388 C 144.259 175.176,144.114 174.984,143.462 174.783 C 142.926 174.619,142.836 174.631,142.923 174.857 M340.766 174.656 C 340.691 174.731,340.629 174.856,340.629 174.932 C 340.629 175.114,341.138 175.039,341.329 174.830 C 341.409 174.742,341.376 174.726,341.256 174.795 C 341.136 174.864,341.007 174.830,340.970 174.719 C 340.934 174.609,340.842 174.580,340.766 174.656 M144.528 175.241 C 144.399 175.287,144.293 175.395,144.293 175.480 C 144.293 175.676,144.741 175.621,144.825 175.415 C 144.912 175.204,144.806 175.142,144.528 175.241 M339.017 175.506 C 338.951 175.614,338.737 175.660,338.542 175.609 C 338.346 175.558,338.187 175.584,338.187 175.666 C 338.187 175.748,338.048 175.804,337.878 175.789 C 337.709 175.775,337.533 175.869,337.487 175.998 C 337.393 176.265,337.921 176.323,338.082 176.063 C 338.140 175.969,338.356 175.937,338.563 175.991 C 338.769 176.045,338.938 176.000,338.938 175.892 C 338.938 175.784,339.129 175.668,339.361 175.634 C 339.719 175.581,339.734 175.552,339.461 175.441 C 339.284 175.369,339.084 175.398,339.017 175.506 M145.295 175.766 C 145.295 176.149,146.101 176.124,146.250 175.737 C 146.349 175.479,146.322 175.467,146.082 175.666 C 145.871 175.841,145.730 175.849,145.546 175.695 C 145.356 175.538,145.295 175.555,145.295 175.766 M147.550 176.299 C 147.550 176.435,147.641 176.554,147.753 176.563 C 147.865 176.572,148.237 176.623,148.580 176.676 C 149.092 176.755,149.166 176.727,148.991 176.516 C 148.874 176.375,148.600 176.294,148.381 176.336 C 148.163 176.378,147.887 176.331,147.767 176.232 C 147.621 176.110,147.550 176.132,147.550 176.299 M335.745 176.562 C 335.745 176.691,335.871 176.797,336.026 176.797 C 336.181 176.797,336.308 176.720,336.308 176.626 C 336.308 176.533,336.490 176.504,336.713 176.562 C 336.983 176.633,337.075 176.598,336.989 176.458 C 336.815 176.177,335.745 176.265,335.745 176.562 M149.593 176.898 C 149.390 177.128,149.412 177.172,149.728 177.172 C 149.987 177.172,150.071 177.083,149.997 176.891 C 149.869 176.556,149.895 176.555,149.593 176.898 M334.617 176.850 C 334.617 176.983,334.786 177.092,334.993 177.092 C 335.442 177.092,335.487 176.882,335.072 176.723 C 334.658 176.564,334.617 176.576,334.617 176.850 M150.545 177.234 C 150.632 177.493,151.036 177.529,151.104 177.284 C 151.130 177.191,150.998 177.092,150.811 177.064 C 150.620 177.036,150.504 177.111,150.545 177.234 M333.419 177.270 C 333.251 177.438,333.114 177.486,333.114 177.378 C 333.114 177.265,332.842 177.320,332.478 177.505 C 332.080 177.709,331.922 177.881,332.056 177.968 C 332.409 178.197,332.733 178.129,332.626 177.849 C 332.558 177.672,332.666 177.584,332.960 177.579 C 333.789 177.564,334.246 177.453,334.254 177.266 C 334.267 176.947,333.740 176.950,333.419 177.270 M152.303 177.452 C 152.363 177.608,152.509 177.737,152.627 177.739 C 152.745 177.740,152.715 177.824,152.560 177.925 C 152.344 178.065,152.399 178.099,152.795 178.069 C 153.419 178.022,153.424 178.077,152.753 177.582 C 152.365 177.295,152.228 177.256,152.303 177.452 M153.796 177.948 C 153.841 178.020,153.771 178.121,153.641 178.171 C 153.512 178.220,153.593 178.252,153.823 178.241 C 154.324 178.216,154.543 177.817,154.055 177.817 C 153.868 177.817,153.751 177.876,153.796 177.948 M331.131 177.906 C 331.201 178.021,331.127 178.165,330.965 178.227 C 330.804 178.289,330.672 178.426,330.672 178.531 C 330.672 178.660,330.748 178.660,330.907 178.531 C 331.036 178.426,331.310 178.306,331.517 178.265 C 331.872 178.193,331.868 178.176,331.448 177.944 C 331.177 177.795,331.053 177.780,331.131 177.906 M155.002 178.311 C 155.002 178.420,154.918 178.457,154.814 178.394 C 154.711 178.330,154.627 178.367,154.627 178.476 C 154.627 178.586,154.753 178.675,154.908 178.675 C 155.063 178.675,155.190 178.549,155.190 178.394 C 155.190 178.239,155.148 178.112,155.096 178.112 C 155.045 178.112,155.002 178.201,155.002 178.311 M155.569 178.446 C 155.564 178.832,156.093 178.927,156.420 178.600 C 156.585 178.435,156.646 178.300,156.556 178.300 C 156.466 178.300,156.288 178.405,156.159 178.533 C 155.974 178.719,155.890 178.709,155.749 178.486 C 155.625 178.290,155.571 178.278,155.569 178.446 M330.060 178.503 C 329.878 178.609,329.645 178.644,329.543 178.581 C 329.440 178.517,329.357 178.555,329.357 178.664 C 329.357 178.949,329.787 178.910,330.213 178.587 C 330.633 178.270,330.544 178.221,330.060 178.503 M156.975 179.031 C 157.395 179.228,158.005 179.460,158.290 179.530 C 158.394 179.555,158.723 179.639,159.022 179.716 C 159.556 179.855,159.559 179.851,159.210 179.501 C 159.014 179.305,158.643 179.136,158.384 179.124 C 158.126 179.113,157.619 179.048,157.257 178.979 C 156.777 178.888,156.701 178.902,156.975 179.031 M328.323 179.051 C 328.257 179.158,328.415 179.239,328.688 179.239 C 328.952 179.239,329.169 179.155,329.169 179.051 C 329.169 178.948,329.005 178.863,328.804 178.863 C 328.603 178.863,328.387 178.948,328.323 179.051 M327.290 179.347 C 327.290 179.719,327.887 179.628,327.993 179.239 C 328.061 178.989,328.048 178.989,327.871 179.239 C 327.736 179.430,327.670 179.445,327.668 179.286 C 327.667 179.157,327.581 179.051,327.478 179.051 C 327.374 179.051,327.290 179.184,327.290 179.347 M326.257 179.587 C 326.200 179.735,326.103 179.806,326.042 179.745 C 325.980 179.683,325.807 179.756,325.657 179.906 C 325.347 180.216,325.035 180.264,325.035 180.002 C 325.035 179.905,324.809 179.942,324.532 180.086 C 324.255 180.230,323.959 180.304,323.874 180.252 C 323.790 180.199,323.720 180.237,323.720 180.335 C 323.720 180.608,324.331 180.782,324.474 180.550 C 324.544 180.437,324.931 180.306,325.335 180.257 C 325.738 180.209,326.153 180.058,326.256 179.922 C 326.360 179.787,326.540 179.708,326.656 179.747 C 326.772 179.786,326.916 179.694,326.974 179.541 C 327.047 179.352,326.966 179.273,326.720 179.291 C 326.522 179.306,326.314 179.439,326.257 179.587 M160.639 179.897 C 160.447 180.127,160.460 180.178,160.710 180.178 C 160.877 180.178,161.015 180.097,161.015 179.997 C 161.015 179.896,161.163 179.862,161.343 179.920 C 161.621 180.010,161.628 179.994,161.390 179.823 C 161.016 179.554,160.915 179.564,160.639 179.897 M162.763 180.473 C 162.460 180.703,162.457 180.731,162.737 180.736 C 162.909 180.739,163.093 180.636,163.145 180.507 C 163.218 180.327,163.243 180.329,163.254 180.518 C 163.262 180.654,163.354 180.712,163.457 180.648 C 163.560 180.584,163.645 180.613,163.645 180.712 C 163.645 180.811,163.944 180.892,164.310 180.892 C 164.854 180.892,164.936 180.845,164.760 180.633 C 164.607 180.449,164.447 180.427,164.204 180.557 C 163.969 180.683,163.841 180.672,163.791 180.522 C 163.684 180.203,163.153 180.177,162.763 180.473 M322.046 180.728 C 321.901 180.820,321.647 180.844,321.483 180.782 C 321.216 180.681,321.214 180.700,321.468 180.956 C 321.856 181.349,322.324 181.317,322.324 180.899 C 322.324 180.709,322.321 180.556,322.318 180.557 C 322.314 180.559,322.192 180.635,322.046 180.728 M165.345 181.112 C 165.223 181.188,165.381 181.255,165.700 181.264 C 166.017 181.273,166.275 181.254,166.275 181.221 C 166.275 181.075,165.544 180.990,165.345 181.112 M166.839 181.129 C 166.839 181.238,166.754 181.276,166.651 181.212 C 166.548 181.148,166.463 181.185,166.463 181.295 C 166.463 181.404,166.630 181.494,166.833 181.494 C 167.085 181.494,167.168 181.404,167.095 181.212 C 166.969 180.884,166.839 180.842,166.839 181.129 M167.778 181.611 C 167.778 181.761,167.975 181.869,168.248 181.869 C 168.521 181.869,168.718 181.761,168.718 181.611 C 168.718 181.461,168.521 181.353,168.248 181.353 C 167.975 181.353,167.778 181.461,167.778 181.611 M319.240 181.453 C 319.119 181.493,319.068 181.603,319.127 181.697 C 319.185 181.792,319.080 181.848,318.893 181.822 C 318.706 181.796,318.532 181.839,318.506 181.916 C 318.481 181.994,318.502 182.057,318.553 182.057 C 318.605 182.057,318.856 182.057,319.111 182.057 C 319.459 182.057,319.546 181.982,319.460 181.757 C 319.359 181.495,319.395 181.488,319.743 181.705 C 320.032 181.886,320.197 181.898,320.348 181.747 C 320.563 181.532,319.695 181.301,319.240 181.453 M169.582 181.819 C 169.356 182.045,169.477 182.267,169.798 182.215 C 169.979 182.185,170.233 182.227,170.362 182.308 C 170.491 182.389,170.597 182.379,170.597 182.286 C 170.597 182.069,169.731 181.671,169.582 181.819 M170.847 182.188 C 170.847 182.328,170.933 182.415,171.039 182.380 C 171.338 182.280,171.388 181.932,171.103 181.932 C 170.962 181.932,170.847 182.047,170.847 182.188 M316.815 182.370 C 316.488 182.502,316.521 182.809,316.862 182.809 C 317.017 182.809,317.144 182.682,317.144 182.527 C 317.144 182.372,317.123 182.252,317.097 182.260 C 317.071 182.268,316.945 182.317,316.815 182.370 M173.675 182.655 C 173.621 182.743,173.485 182.758,173.373 182.689 C 173.248 182.612,173.223 182.651,173.309 182.789 C 173.410 182.954,173.515 182.959,173.695 182.810 C 173.876 182.660,173.963 182.668,174.020 182.838 C 174.074 183.002,174.130 182.986,174.208 182.784 C 174.325 182.479,173.854 182.366,173.675 182.655 M175.121 183.020 C 175.102 183.411,177.130 183.648,177.501 183.298 C 177.686 183.124,177.659 183.077,177.374 183.077 C 177.175 183.077,177.053 183.144,177.103 183.225 C 177.247 183.457,176.897 183.397,176.646 183.147 C 176.522 183.023,176.420 183.002,176.418 183.100 C 176.416 183.198,176.343 183.164,176.254 183.024 C 176.131 182.830,176.002 182.818,175.708 182.976 C 175.419 183.131,175.301 183.124,175.230 182.948 C 175.170 182.801,175.130 182.828,175.121 183.020 M314.460 183.128 C 314.538 183.330,314.611 183.364,314.658 183.221 C 314.700 183.096,314.824 183.050,314.935 183.119 C 315.053 183.192,315.081 183.154,315.002 183.026 C 314.784 182.674,314.320 182.762,314.460 183.128 M179.068 183.546 C 178.923 183.638,178.699 183.673,178.571 183.624 C 178.442 183.575,178.283 183.623,178.217 183.730 C 178.035 184.024,179.392 183.923,179.640 183.624 C 179.888 183.326,179.500 183.273,179.068 183.546 M180.366 183.765 C 180.366 183.871,180.288 183.910,180.191 183.850 C 180.095 183.791,179.963 183.828,179.899 183.933 C 179.756 184.163,180.359 184.183,180.711 183.959 C 180.913 183.831,180.904 183.778,180.664 183.686 C 180.500 183.624,180.366 183.659,180.366 183.765 M310.005 183.914 C 309.543 184.104,309.579 184.505,310.052 184.433 C 310.284 184.397,310.460 184.311,310.442 184.241 C 310.346 183.872,310.261 183.809,310.005 183.914 M181.868 184.207 C 182.218 184.402,182.372 184.413,182.476 184.249 C 182.579 184.087,182.616 184.091,182.618 184.265 C 182.620 184.394,182.722 184.500,182.846 184.500 C 183.349 184.500,182.617 184.062,182.018 184.005 L 181.400 183.946 181.868 184.207 M183.261 184.341 C 183.178 184.475,183.209 184.507,183.343 184.424 C 183.472 184.344,183.560 184.409,183.560 184.583 C 183.560 184.990,184.608 184.979,184.765 184.570 C 184.862 184.315,184.787 184.283,184.315 184.377 C 183.995 184.441,183.748 184.411,183.748 184.307 C 183.748 184.054,183.424 184.077,183.261 184.341 M185.690 184.750 C 185.690 184.900,185.966 185.010,186.410 185.036 C 186.806 185.060,187.130 185.001,187.130 184.905 C 187.130 184.658,186.298 184.471,186.219 184.700 C 186.175 184.829,186.079 184.829,185.922 184.698 C 185.758 184.562,185.690 184.577,185.690 184.750 M306.929 184.632 C 306.704 184.857,306.813 184.970,307.281 184.997 C 307.539 185.011,307.750 184.993,307.750 184.956 C 307.750 184.803,307.039 184.522,306.929 184.632 M306.435 184.829 C 306.435 184.944,306.164 185.011,305.809 184.983 C 305.384 184.949,305.182 185.014,305.182 185.186 C 305.182 185.325,305.295 185.439,305.433 185.439 C 305.571 185.439,305.683 185.355,305.683 185.251 C 305.683 185.148,305.773 185.063,305.882 185.063 C 305.992 185.063,306.029 185.148,305.965 185.251 C 305.901 185.355,305.972 185.439,306.122 185.439 C 306.401 185.439,306.711 184.901,306.533 184.723 C 306.479 184.669,306.435 184.717,306.435 184.829 M187.946 185.074 C 187.631 185.185,187.638 185.208,188.021 185.330 C 188.252 185.403,188.527 185.411,188.631 185.347 C 188.735 185.283,189.000 185.195,189.222 185.153 C 189.443 185.110,189.653 185.046,189.689 185.009 C 189.806 184.892,188.304 184.948,187.946 185.074 M190.715 185.298 C 190.700 185.624,191.426 185.778,191.697 185.507 C 191.938 185.266,191.607 185.068,191.267 185.249 C 191.018 185.383,190.891 185.369,190.824 185.203 C 190.768 185.065,190.723 185.104,190.715 185.298 M304.097 185.361 C 303.777 185.595,303.797 185.613,304.339 185.575 C 304.952 185.532,305.111 185.360,304.689 185.198 C 304.556 185.147,304.289 185.220,304.097 185.361 M192.584 185.624 C 192.277 185.813,192.545 185.961,193.189 185.958 C 193.633 185.956,193.962 185.653,193.565 185.613 C 193.488 185.605,193.288 185.572,193.121 185.539 C 192.954 185.506,192.712 185.545,192.584 185.624 M302.302 185.715 C 302.302 185.954,302.376 185.976,302.662 185.823 C 302.906 185.693,303.054 185.692,303.118 185.821 C 303.170 185.926,303.191 185.904,303.165 185.773 C 303.092 185.404,302.302 185.351,302.302 185.715 M195.323 185.782 C 195.159 186.048,195.449 186.198,196.036 186.149 C 196.304 186.127,196.524 186.000,196.524 185.866 C 196.524 185.670,196.451 185.669,196.143 185.860 C 195.832 186.053,195.732 186.049,195.603 185.842 C 195.500 185.678,195.401 185.656,195.323 185.782 M199.246 186.162 C 198.965 186.443,199.259 186.580,200.063 186.544 C 200.683 186.515,200.971 186.421,200.971 186.246 C 200.971 186.070,200.910 186.051,200.777 186.184 C 200.546 186.415,200.218 186.446,200.355 186.225 C 200.454 186.064,199.404 186.004,199.246 186.162 M298.402 186.128 C 298.014 186.284,298.339 186.566,298.908 186.566 C 299.542 186.566,300.056 186.098,299.470 186.053 C 299.266 186.038,299.140 186.091,299.189 186.171 C 299.239 186.251,299.160 186.316,299.014 186.316 C 298.868 186.316,298.792 186.245,298.845 186.159 C 298.950 185.990,298.775 185.977,298.402 186.128 M202.593 186.626 C 202.529 186.731,202.574 186.754,202.695 186.678 C 202.815 186.605,202.912 186.622,202.912 186.717 C 202.912 186.812,203.335 186.885,203.852 186.879 C 204.432 186.873,204.791 186.787,204.791 186.652 C 204.791 186.381,202.760 186.357,202.593 186.626 M205.426 186.592 C 205.484 186.895,206.293 187.002,206.297 186.706 C 206.299 186.552,206.362 186.568,206.482 186.754 C 206.591 186.924,206.665 186.947,206.667 186.812 C 206.671 186.461,206.336 186.343,205.937 186.556 C 205.691 186.688,205.542 186.689,205.478 186.560 C 205.426 186.455,205.402 186.469,205.426 186.592 M295.109 186.699 C 295.179 186.882,295.272 186.897,295.448 186.751 C 295.621 186.607,295.711 186.615,295.766 186.780 C 295.816 186.932,295.965 186.957,296.207 186.852 C 296.407 186.766,296.698 186.712,296.853 186.733 C 297.103 186.766,297.103 186.748,296.853 186.574 C 296.430 186.279,294.988 186.383,295.109 186.699 M207.751 186.675 C 207.527 186.900,207.797 187.130,208.285 187.130 C 208.674 187.130,208.711 187.087,208.509 186.869 C 208.358 186.706,208.222 186.679,208.149 186.796 C 208.074 186.915,208.003 186.903,207.957 186.764 C 207.916 186.642,207.824 186.602,207.751 186.675 M209.011 186.767 C 208.942 186.877,208.937 187.018,209.000 187.080 C 209.062 187.142,209.112 187.094,209.112 186.974 C 209.112 186.853,209.260 186.756,209.441 186.757 C 209.722 186.760,209.729 186.787,209.488 186.942 C 209.259 187.090,209.285 187.125,209.623 187.127 C 209.917 187.129,210.008 187.047,209.932 186.848 C 209.807 186.524,209.194 186.470,209.011 186.767 M290.148 186.835 C 289.968 187.040,290.010 187.084,290.367 187.063 C 290.698 187.043,290.760 186.977,290.614 186.801 C 290.383 186.523,290.424 186.520,290.148 186.835 M291.609 186.829 C 291.432 187.042,291.436 187.092,291.629 187.064 C 291.888 187.026,292.056 186.779,291.917 186.640 C 291.871 186.595,291.732 186.679,291.609 186.829 M292.547 186.895 C 292.555 187.094,292.599 187.130,292.657 186.988 C 292.709 186.858,292.829 186.800,292.924 186.858 C 293.018 186.917,293.095 186.875,293.095 186.765 C 293.095 186.656,292.969 186.566,292.814 186.566 C 292.659 186.566,292.538 186.714,292.547 186.895 M213.366 187.224 C 213.300 187.396,213.365 187.506,213.533 187.506 C 213.685 187.506,213.809 187.379,213.809 187.224 C 213.809 187.069,213.734 186.942,213.642 186.942 C 213.549 186.942,213.425 187.069,213.366 187.224 M214.436 187.283 C 214.436 187.571,216.195 187.561,216.572 187.272 C 216.697 187.176,216.908 187.161,217.042 187.238 C 217.184 187.320,217.220 187.307,217.128 187.207 C 216.868 186.924,214.436 186.993,214.436 187.283 M218.027 187.233 C 218.332 187.392,218.754 187.488,218.966 187.446 C 219.259 187.388,219.231 187.363,218.846 187.344 C 218.568 187.330,218.288 187.233,218.225 187.130 C 218.161 187.027,217.965 186.943,217.791 186.943 C 217.594 186.944,217.683 187.054,218.027 187.233 M286.662 187.083 C 286.791 187.127,286.858 187.226,286.810 187.304 C 286.761 187.383,287.141 187.451,287.654 187.456 C 288.233 187.462,288.586 187.384,288.586 187.251 C 288.586 187.117,288.181 187.030,287.506 187.020 C 286.912 187.011,286.532 187.039,286.662 187.083 M288.774 187.160 C 288.774 187.393,289.103 187.512,289.415 187.392 C 289.880 187.214,289.766 186.942,289.244 186.985 C 288.985 187.007,288.774 187.085,288.774 187.160 M284.829 187.358 C 284.829 187.566,285.347 187.543,285.479 187.329 C 285.539 187.232,285.417 187.166,285.208 187.181 C 284.999 187.197,284.829 187.277,284.829 187.358 M220.197 187.546 C 220.197 187.764,221.095 187.726,221.233 187.502 C 221.306 187.384,221.129 187.327,220.774 187.354 C 220.457 187.378,220.197 187.464,220.197 187.546 M282.950 187.506 C 282.950 187.609,283.203 187.694,283.513 187.694 C 283.823 187.694,284.077 187.609,284.077 187.506 C 284.077 187.403,283.823 187.318,283.513 187.318 C 283.203 187.318,282.950 187.403,282.950 187.506 M228.845 187.563 C 229.013 187.713,230.531 187.846,230.531 187.711 C 230.531 187.637,230.131 187.555,229.643 187.530 C 229.155 187.505,228.796 187.520,228.845 187.563 M232.222 187.702 C 231.140 187.772,231.852 187.817,234.429 187.841 C 236.522 187.861,238.234 187.815,238.234 187.739 C 238.234 187.576,234.530 187.554,232.222 187.702 M270.268 187.711 C 269.658 187.784,270.180 187.833,271.755 187.852 C 273.090 187.868,274.136 187.836,274.080 187.780 C 273.929 187.629,271.352 187.583,270.268 187.711 M275.059 187.694 L 274.213 187.825 274.965 187.831 C 275.378 187.834,275.970 187.773,276.280 187.694 C 277.032 187.502,276.289 187.502,275.059 187.694 " stroke="none" fill="#dce4e4" fill-rule="evenodd"></path><path id="path2" d="M32.647 139.917 C 32.880 139.962,33.219 139.960,33.398 139.913 C 33.578 139.866,33.387 139.829,32.973 139.831 C 32.560 139.833,32.413 139.872,32.647 139.917 M34.993 139.913 C 35.174 139.961,35.470 139.961,35.651 139.913 C 35.831 139.866,35.683 139.828,35.322 139.828 C 34.960 139.828,34.812 139.866,34.993 139.913 M221.700 187.506 C 221.700 187.609,221.827 187.694,221.982 187.694 C 222.137 187.694,222.264 187.609,222.264 187.506 C 222.264 187.403,222.137 187.318,221.982 187.318 C 221.827 187.318,221.700 187.403,221.700 187.506 M282.386 187.506 C 282.386 187.609,282.513 187.694,282.668 187.694 C 282.823 187.694,282.950 187.609,282.950 187.506 C 282.950 187.403,282.823 187.318,282.668 187.318 C 282.513 187.318,282.386 187.403,282.386 187.506 " stroke="none" fill="#e4e4ec" fill-rule="evenodd"></path><path id="path3" d="" stroke="none" fill="#e8e4e4" fill-rule="evenodd"></path><path id="path4" d="" stroke="none" fill="#e8e4e4" fill-rule="evenodd"></path></g></svg>